<svg width="30" height="30" fill="none" xmlns="http://www.w3.org/2000/svg"><path fill-rule="evenodd" clip-rule="evenodd" d="M11.555 13.174l-.008.01.008-.01zm.898.01l-.008-.01a.09.09 0 01.008.01zm-.008-5.358l.008-.01-.008.01zm-.898-.01l.008.01-.008-.01zm6.008 5.358l-.008.01.008-.01zm.898.01l-.008-.01a.09.09 0 01.008.01zm-.008-5.358a.104.104 0 01.008-.01l-.008.01z" fill="#86C84C"/><path d="M5 15v1c0 1.852 1.127 4.09 2.837 5.827C9.576 23.592 12.07 25 15 25c2.93 0 5.424-1.408 7.163-3.173C23.873 20.09 25 17.852 25 16v-1H5z" fill="#86C84C"/><path fill-rule="evenodd" clip-rule="evenodd" d="M19 10.5c0 1.933-.448 3.5-1 3.5s-1-1.567-1-3.5.448-3.5 1-3.5 1 1.567 1 3.5zm-1.445 2.674l-.008.01.008-.01zm.898.01l-.008-.01a.09.09 0 01.008.01zm-.008-5.358a.104.104 0 01.008-.01l-.008.01zM13 10.5c0 1.933-.448 3.5-1 3.5s-1-1.567-1-3.5.448-3.5 1-3.5 1 1.567 1 3.5zm-1.445 2.674l-.008.01.008-.01zm.898.01l-.008-.01a.09.09 0 01.008.01zm-.008-5.358l.008-.01-.008.01zm-.898-.01l.008.01-.008-.01z" fill="#86C84C"/><path fill-rule="evenodd" clip-rule="evenodd" d="M30 15c0 8.284-6.716 15-15 15-8.284 0-15-6.716-15-15C0 6.716 6.716 0 15 0c8.284 0 15 6.716 15 15zM15 29c7.732 0 14-6.268 14-14S22.732 1 15 1 1 7.268 1 15s6.268 14 14 14z" fill="#86C84C"/><path fill-rule="evenodd" clip-rule="evenodd" d="M11.555 13.174l-.008.01.008-.01zm.898.01l-.008-.01a.09.09 0 01.008.01zm-.008-5.358l.008-.01-.008.01zm-.898-.01l.008.01-.008-.01zm6.008 5.358l-.008.01.008-.01zm.898.01l-.008-.01a.09.09 0 01.008.01zm-.008-5.358a.104.104 0 01.008-.01l-.008.01z" fill="#fff"/><path fill-rule="evenodd" clip-rule="evenodd" d="M29 15c0 7.732-6.268 14-14 14S1 22.732 1 15 7.268 1 15 1s14 6.268 14 14zm-17-1c.552 0 1-1.567 1-3.5S12.552 7 12 7s-1 1.567-1 3.5.448 3.5 1 3.5zm6 0c.552 0 1-1.567 1-3.5S18.552 7 18 7s-1 1.567-1 3.5.448 3.5 1 3.5zm7 1v1c0 1.852-1.127 4.09-2.837 5.827C20.424 23.592 17.93 25 15 25c-2.93 0-5.424-1.408-7.163-3.173C6.127 20.09 5 17.852 5 16v-1h20z" fill="#fff"/></svg>
