<svg width="30" height="30" fill="none" xmlns="http://www.w3.org/2000/svg"><path fill-rule="evenodd" clip-rule="evenodd" d="M30 15c0 8.284-6.716 15-15 15-8.284 0-15-6.716-15-15C0 6.716 6.716 0 15 0c8.284 0 15 6.716 15 15zM12 8c.8 0 1 3.667 1 5 0 1.333-.2 5-1 5s-1-3.667-1-5c0-1.333.2-5 1-5zm6 0c-.8 0-1 3-1 4.5 0 1.833.2 5.5 1 5.5s1-3.667 1-5.5C19 11 18.8 8 18 8z" fill="#fff"/><path d="M13 13c0-1.333-.2-5-1-5s-1 3.667-1 5c0 1.333.2 5 1 5s1-3.667 1-5zM17 12.5c0-1.5.2-4.5 1-4.5s1 3 1 4.5c0 1.833-.2 5.5-1 5.5s-1-3.667-1-5.5z" fill="#FFD800"/><path d="M8 20c3 5 11 5 14 0m-14.429.257C9.177 22.934 12.107 24.25 15 24.25c2.893 0 5.823-1.316 7.429-3.993l-.858-.514C20.177 22.066 17.607 23.25 15 23.25c-2.607 0-5.177-1.184-6.571-3.507l-.858.514zM13.5 13c0-.682-.05-1.956-.205-3.069-.076-.551-.182-1.092-.33-1.507a2.038 2.038 0 00-.301-.576c-.132-.164-.351-.348-.664-.348-.313 0-.532.184-.664.348a2.038 2.038 0 00-.3.576c-.15.415-.255.956-.331 1.507A24.946 24.946 0 0010.5 13c0 .682.05 1.956.205 3.069.076.552.182 1.093.33 1.507.075.204.17.411.301.576.132.164.351.348.664.348.313 0 .532-.184.664-.348.13-.165.226-.372.3-.576.15-.415.255-.956.331-1.507.154-1.113.205-2.387.205-3.069zm-1.523-4.237L12 8.701l.023.062c.114.315.208.774.282 1.306.146 1.054.195 2.28.195 2.931 0 .65-.05 1.877-.195 2.931-.074.532-.168.99-.282 1.306a2.294 2.294 0 01-.023.062 2.294 2.294 0 01-.023-.062c-.114-.315-.208-.774-.282-1.306A23.961 23.961 0 0111.5 13c0-.65.05-1.877.195-2.931.074-.532.168-.99.282-1.306zM17.5 12.5c0-.735.05-1.832.194-2.733.073-.456.165-.83.271-1.077A1.4 1.4 0 0118 8.615a1.4 1.4 0 01.035.075c.106.247.198.62.271 1.077.145.901.194 1.998.194 2.733 0 .905-.05 2.256-.196 3.373-.073.562-.168 1.037-.282 1.36a2.144 2.144 0 01-.022.06 2.144 2.144 0 01-.022-.06c-.114-.323-.209-.798-.282-1.36-.146-1.117-.196-2.468-.196-3.373zm.5-5a.875.875 0 00-.632.285 1.7 1.7 0 00-.321.51c-.156.361-.264.832-.34 1.313-.156.974-.207 2.127-.207 2.892 0 .929.05 2.327.204 3.502.077.584.182 1.14.33 1.563.074.208.17.418.301.584.132.166.351.351.665.351.314 0 .533-.185.665-.351.131-.166.227-.376.3-.584.15-.423.254-.98.33-1.563.155-1.175.205-2.573.205-3.502 0-.765-.05-1.918-.206-2.892-.077-.481-.185-.952-.341-1.314a1.7 1.7 0 00-.32-.51A.875.875 0 0018 7.5zM29.5 15c0 8.008-6.492 14.5-14.5 14.5S.5 23.008.5 15 6.992.5 15 .5 29.5 6.992 29.5 15z" stroke="#FFD800"/></svg>
