<svg width="30" height="31" fill="none" xmlns="http://www.w3.org/2000/svg"><mask id="prefix__a" fill="#fff"><path fill-rule="evenodd" clip-rule="evenodd" d="M16.5 12.5h5v1h-2v2c0 1.5-1 1.5-1 0v-2h-2v-1zm-6 3c0 1.5 1 1.5 1 0v-2h2v-1h-5v1h2v2z"/><path d="M17.5 22.5c0 .8-2 .5-3 .5s-3 .3-3-.5 2.039-1 3.058-1c1.017.008 2.942.215 2.942 1z"/><path fill-rule="evenodd" clip-rule="evenodd" d="M29.997 15.32c0 8.285-6.716 15-15 15-8.285 0-15-6.715-15-15 0-8.284 6.715-15 15-15 8.284 0 15 6.716 15 15zM14.5 23c1 0 3 .3 3-.5 0-.785-1.925-.992-2.942-1-1.02 0-3.058.2-3.058 1s2 .5 3 .5zm7-10.5h-5v1h2v2c0 1.5 1 1.5 1 0v-2h2v-1zm-10 3c0 1.5-1 1.5-1 0v-2h-2v-1h5v1h-2v2z"/></mask><path fill-rule="evenodd" clip-rule="evenodd" d="M16.5 12.5h5v1h-2v2c0 1.5-1 1.5-1 0v-2h-2v-1zm-6 3c0 1.5 1 1.5 1 0v-2h2v-1h-5v1h2v2z" fill="#C82B13"/><path d="M17.5 22.5c0 .8-2 .5-3 .5s-3 .3-3-.5 2.039-1 3.058-1c1.017.008 2.942.215 2.942 1z" fill="#C82B13"/><path fill-rule="evenodd" clip-rule="evenodd" d="M29.997 15.32c0 8.285-6.716 15-15 15-8.285 0-15-6.715-15-15 0-8.284 6.715-15 15-15 8.284 0 15 6.716 15 15zM14.5 23c1 0 3 .3 3-.5 0-.785-1.925-.992-2.942-1-1.02 0-3.058.2-3.058 1s2 .5 3 .5zm7-10.5h-5v1h2v2c0 1.5 1 1.5 1 0v-2h2v-1zm-10 3c0 1.5-1 1.5-1 0v-2h-2v-1h5v1h-2v2z" fill="#fff"/><path d="M16.5 12.5V12H16v.5h.5zm5 0h.5V12h-.5v.5zm0 1v.5h.5v-.5h-.5zm-2 0V13H19v.5h.5zm-1 0h.5V13h-.5v.5zm-2 0H16v.5h.5v-.5zm-6 2h.5-.5zm1-2V13H11v.5h.5zm2 0v.5h.5v-.5h-.5zm0-1h.5V12h-.5v.5zm-5 0V12H8v.5h.5zm0 1H8v.5h.5v-.5zm2 0h.5V13h-.5v.5zm6.5 9c0-.014.008-.045.027-.068.012-.014.008 0-.047.022-.118.049-.325.084-.625.096-.289.012-.613 0-.94-.015-.317-.015-.65-.035-.915-.035v1c.234 0 .527.018.867.034.329.015.692.03 1.028.016.325-.013.68-.053.969-.173.148-.061.308-.156.433-.307A.88.88 0 0018 22.5h-1zm-2.5 0c-.266 0-.598.02-.914.035-.328.015-.652.027-.941.015-.3-.012-.507-.047-.625-.096-.055-.023-.059-.036-.047-.022.02.023.027.054.027.068h-1c0 .214.07.41.203.57.125.15.285.246.433.307.289.12.644.16.969.173.336.013.7 0 1.028-.016.34-.016.633-.034.867-.034v-1zm0-.5h.054l.008-1H14.5v1zm.054 0c.487.004 1.18.056 1.736.194.282.07.49.153.617.237.127.083.093.11.093.069h1c0-.433-.274-.727-.54-.903-.267-.176-.603-.293-.93-.374-.66-.163-1.439-.219-1.969-.223l-.007 1zM12 22.5c0 .047-.038.017.102-.071.138-.088.362-.172.66-.242.585-.138 1.308-.187 1.796-.187v-1c-.532 0-1.338.052-2.026.213-.34.08-.69.196-.965.371-.274.174-.567.47-.567.916h1zm4.5-9.5h5v-1h-5v1zm4.5-.5v1h1v-1h-1zm.5.5h-2v1h2v-1zm-2.5.5v2h1v-2h-1zm0 2c0 .16-.013.292-.034.397-.01.052-.022.097-.034.134a.64.64 0 01-.061.132c-.006.008-.006.006 0 .001a.163.163 0 01.044-.024.221.221 0 01.085-.015.243.243 0 01.085.015.165.165 0 01.044.024c.006.005.006.006 0 0a.652.652 0 01-.062-.132 1.121 1.121 0 01-.033-.135A2.095 2.095 0 0119 15.5h-1c0 .423.07.788.209 1.067.132.264.391.558.791.558s.659-.294.791-.558c.14-.279.209-.644.209-1.067h-1zm0 0v-2h-1v2h1zm-.5-2.5h-2v1h2v-1zm-1.5.5v-1h-1v1h1zm-7 2c0 .423.07.788.209 1.067.132.264.391.558.791.558s.659-.294.791-.558c.14-.279.209-.644.209-1.067h-1c0 .16-.013.292-.034.397-.01.052-.022.096-.034.134a.64.64 0 01-.061.132c-.006.008-.006.006 0 .001a.16.16 0 01.044-.024.23.23 0 01.085-.015.251.251 0 01.085.015.162.162 0 01.044.024c.006.005.006.006 0 0a.64.64 0 01-.062-.132 1.126 1.126 0 01-.033-.135A2.095 2.095 0 0111 15.5h-1zm2 0v-.005-.004-.005-.005-.004-.005-.005-.005-.004-.005-.005-.004-.005-.005-.004-.005-.005-.005-.004-.005-.005-.004-.005-.005-.005-.004-.005-.005-.004-.005-.005-.005-.004-.005-.005-.005-.004-.005-.005-.004-.005-.005-.005-.004-.005-.005-.005-.004-.005-.005-.004-.005-.005-.005-.004-.005-.005-.005-.004-.005-.005-.005-.004-.005-.005-.004-.005-.005-.005-.004-.005-.005-.005-.004-.005-.005-.004-.005-.005-.005-.004-.005-.005-.005-.004-.005-.005-.004-.005-.005-.005-.004-.005-.005-.004-.005-.005-.005-.004-.005-.005-.004-.005-.005-.004V15v-.005-.004-.005-.005-.005-.004-.005-.005-.004-.005-.005-.004-.005-.005-.004-.005-.005-.004-.005-.005-.004-.005-.005-.004-.005-.005-.004-.005-.005-.004-.005-.005-.004-.005-.005-.004-.005-.004-.005-.005-.004-.005-.005-.004-.005-.004-.005-.005-.004-.005-.004-.005-.005-.004-.005-.004-.005-.005-.004-.005-.004-.005-.004-.005-.005-.004-.005-.004-.005-.004-.005-.004-.005-.004-.005-.004-.005-.005-.004-.005-.004-.005-.004-.005-.004-.005-.004-.004-.005-.004-.005-.004-.005-.004-.005-.004-.005-.004-.005-.004-.004-.005-.004-.005-.004-.004-.005-.004-.005-.004-.004-.005-.004-.005-.004-.004-.005-.004-.004-.005-.004-.004-.005-.004-.004-.005-.004-.004-.005-.004-.004-.005-.004-.004-.004-.005-.004-.004-.005-.004-.004-.004-.005-.004-.004-.004-.004-.005-.004-.004-.004-.004-.005-.004-.004-.004-.004-.004-.005-.004-.004-.004-.004-.004-.004-.005-.004-.004-.004-.004-.004-.004-.004-.004-.004-.004-.004-.004-.004-.004-.005-.003-.005-.004-.004-.003-.005-.003-.004-.004-.004-.004-.004-.004-.004-.004-.004-.004-.004-.004-.004-.004-.003-.004-.004-.004-.004-.004-.003-.004-.004-.004-.004-.004-.003-.004-.004-.004-.004-.003-.004-.004-.004-.003-.004-.004-.003-.004-.004-.004-.003V14v-.004-.003-.004-.004-.003-.004-.003-.004-.004-.003-.004-.003-.004-.004-.003-.004-.003-.004-.003-.004-.003-.004-.003-.004-.003-.004-.003-.004-.003-.003-.004-.003-.004-.003-.004-.003-.003-.004-.003-.003-.004-.003-.003-.004-.003-.003-.004-.003-.003-.003-.004-.003-.003-.003-.004-.003-.003-.003-.003-.004-.003-.003-.003-.003-.003-.003-.004-.003-.003-.003-.003-.003-.003-.003-.003-.003-.003-.003-.003-.003-.003-.003-.003-.003-.003-.003-.003-.003-.003-.003-.002-.003-.003-.003-.003-.003-.002-.003-.003-.003-.003-.002-.003-.003-.003-.002-.003-.003-.002-.003-.003-.003-.002-.003-.002-.003-.003-.002-.003-.002-.003-.002-.003-.003-.002-.003-.002-.003-.002-.003-.002-.003-.002-.002-.003-.002-.003-.002-.002-.003-.002-.002-.003-.002-.002-.003-.002-.002-.002-.003-.002-.002-.002-.003-.002-.002-.002-.002-.002-.002-.003-.002-.002-.002-.002-.002-.002-.002-.002-.002-.002-.002-.002-.002h-1V15.5h1zm-.5-1.5h2v-1h-2v1zm2.5-.5v-1h-1v1h1zm-.5-1.5h-5v1h5v-1zm-5.5.5v1h1v-1H8zm.5 1.5h2v-1h-2v1zm1.5-.5v2h1v-2h-1zm2 2v-2h-1v2h1zm16.997-.18c0 7.733-6.268 14-14 14v2c8.836 0 16-7.163 16-16h-2zm-14 14c-7.732 0-14-6.267-14-14h-2c0 8.837 7.163 16 16 16v-2zm-14-14c0-7.731 6.268-14 14-14v-2c-8.837 0-16 7.164-16 16h2zm14-14c7.732 0 14 6.269 14 14h2c0-8.836-7.164-16-16-16v2z" fill="#C82B13" mask="url(#prefix__a)"/></svg>
