<svg width="60" height="60" fill="none" xmlns="http://www.w3.org/2000/svg"><path fill-rule="evenodd" clip-rule="evenodd" d="M1.364 53.864c0 1.31.52 2.565 1.446 3.491l1.198 1.199a4.938 4.938 0 006.984 0l4.879-4.88c.315-.315.493-.743.493-1.189 0-.428.163-.84.457-1.152l20.884-22.19a1.611 1.611 0 012.313-.035l.55.551a3.492 3.492 0 002.47 1.023h3.925c.926 0 1.814-.368 2.469-1.023l.54-.54a1.646 1.646 0 011.164-.483c.437 0 .856-.173 1.164-.482l.4-.4a1.646 1.646 0 011.164-.481c.436 0 .855-.174 1.164-.482l1.763-1.763c.308-.31.482-.728.482-1.164 0-.437.173-.856.482-1.164l.881-.882A4.656 4.656 0 0060 18.526v-6.852a1.447 1.447 0 00-2.47-1.023l-7.275 7.276a1.646 1.646 0 01-2.328 0l-5.854-5.854a1.646 1.646 0 010-2.328l7.417-7.417A1.364 1.364 0 0048.526 0h-6.653c-.617 0-1.21.245-1.646.682l-.2.2a1.646 1.646 0 01-1.163.482c-.437 0-.856.173-1.164.482L31.846 7.7a1.646 1.646 0 00-.482 1.164c0 .436-.174.855-.483 1.164l-.2.2A2.328 2.328 0 0030 11.872v6.254c0 .617.245 1.21.682 1.646l.2.2c.308.308.482.727.482 1.163 0 .437.173.856.482 1.164l.4.4a1.647 1.647 0 010 2.328l-4.476 4.475c-.318.318-.75.497-1.2.497-.425 0-.835.16-1.148.446l-15.39 14.108A1.698 1.698 0 018.885 45c-.45 0-.882.179-1.2.497L2.81 50.372a4.938 4.938 0 00-1.446 3.492zm5.055-2.046a2.328 2.328 0 00-2.328 2.328v.799a2.328 2.328 0 002.328 2.328h.799a2.328 2.328 0 002.328-2.328v-.799a2.328 2.328 0 00-2.328-2.328h-.8z" fill="#fff"/><path d="M34.282 46.555a6.75 6.75 0 011.495-10.673 6.75 6.75 0 018.05 1.127l8.673 8.673a6.75 6.75 0 11-9.545 9.545l-8.673-8.672zM23.864 28.636c.436 0 .855-.173 1.164-.482l.316-.316c.362-.362.565-.853.565-1.364v-.964a.964.964 0 00-.964-.965.964.964 0 01-.682-.282l-3.326-3.326a1.646 1.646 0 01-.483-1.164c0-.437-.173-.855-.482-1.164l-4.89-4.89a4.938 4.938 0 01-1.446-3.492v-1.08c0-.618-.245-1.21-.681-1.647l-.2-.2a1.646 1.646 0 00-1.164-.482c-.437 0-.855-.173-1.164-.482L8.664 4.573A1.646 1.646 0 007.5 4.091c-.437 0-.855-.174-1.164-.482l-.4-.4a1.646 1.646 0 00-2.328 0L.965 5.854a1.364 1.364 0 000 1.928c.256.256.4.603.4.965v.117c0 .436.173.855.482 1.164l1.763 1.763c.308.308.482.727.482 1.163 0 .437.173.856.482 1.164l.54.541a3.492 3.492 0 002.47 1.023h.599c1.31 0 2.566.52 3.492 1.446L22.7 28.154c.308.309.727.482 1.164.482z" fill="#fff"/></svg>
