<svg width="320" height="30" fill="none" xmlns="http://www.w3.org/2000/svg"><g clip-path="url(#a)"><mask id="c" style="mask-type:alpha" maskUnits="userSpaceOnUse" x="-21" y="-10" width="153" height="126"><path transform="rotate(28.59 25.633 18.585)" fill="url(#b)" d="M0 0h136v69H0z"/></mask><g mask="url(#c)" fill="#D9D9D9"><path d="M-21.906-3.04a1.5 1.5 0 1 1-2.916.706 1.5 1.5 0 0 1 2.916-.707ZM-16.075-4.453a1.5 1.5 0 1 1-2.916.706 1.5 1.5 0 0 1 2.916-.706ZM-10.243-5.866a1.5 1.5 0 1 1-2.916.706 1.5 1.5 0 0 1 2.916-.706ZM-4.412-7.278a1.5 1.5 0 1 1-2.916.706 1.5 1.5 0 0 1 2.916-.706ZM1.42-8.691a1.5 1.5 0 1 1-2.916.706 1.5 1.5 0 0 1 2.915-.706ZM7.25-10.104a1.5 1.5 0 1 1-2.915.707 1.5 1.5 0 0 1 2.916-.707ZM13.082-11.516a1.5 1.5 0 1 1-2.916.706 1.5 1.5 0 0 1 2.916-.706ZM18.913-12.929a1.5 1.5 0 1 1-2.915.707 1.5 1.5 0 0 1 2.915-.707ZM24.745-14.341a1.5 1.5 0 1 1-2.916.706 1.5 1.5 0 0 1 2.916-.706ZM30.576-15.754a1.5 1.5 0 1 1-2.916.707 1.5 1.5 0 0 1 2.916-.707ZM36.407-17.166a1.5 1.5 0 1 1-2.915.706 1.5 1.5 0 0 1 2.916-.706ZM42.239-18.579a1.5 1.5 0 1 1-2.916.706 1.5 1.5 0 0 1 2.916-.706ZM48.07-19.991a1.5 1.5 0 1 1-2.916.706 1.5 1.5 0 0 1 2.916-.706ZM53.901-21.404a1.5 1.5 0 1 1-2.915.706 1.5 1.5 0 0 1 2.916-.706ZM59.733-22.817a1.5 1.5 0 1 1-2.916.707 1.5 1.5 0 0 1 2.916-.707ZM65.564-24.23a1.5 1.5 0 1 1-2.915.707 1.5 1.5 0 0 1 2.915-.706ZM71.396-25.642a1.5 1.5 0 1 1-2.916.706 1.5 1.5 0 0 1 2.916-.706ZM77.227-27.054a1.5 1.5 0 1 1-2.916.706 1.5 1.5 0 0 1 2.916-.706ZM83.058-28.467a1.5 1.5 0 1 1-2.915.706 1.5 1.5 0 0 1 2.915-.706ZM88.89-29.88a1.5 1.5 0 1 1-2.916.707 1.5 1.5 0 0 1 2.916-.707ZM-20.494 2.79a1.5 1.5 0 1 1-2.915.707 1.5 1.5 0 0 1 2.915-.706ZM-14.662 1.378a1.5 1.5 0 1 1-2.916.706 1.5 1.5 0 0 1 2.916-.706ZM-8.83-.034a1.5 1.5 0 1 1-2.916.706 1.5 1.5 0 0 1 2.915-.706ZM-3-1.447a1.5 1.5 0 1 1-2.915.706A1.5 1.5 0 0 1-3-1.447ZM2.832-2.86a1.5 1.5 0 1 1-2.916.707 1.5 1.5 0 0 1 2.916-.707ZM8.663-4.272a1.5 1.5 0 1 1-2.915.706 1.5 1.5 0 0 1 2.915-.706ZM14.495-5.685a1.5 1.5 0 1 1-2.916.707 1.5 1.5 0 0 1 2.916-.707ZM20.326-7.097a1.5 1.5 0 1 1-2.916.706 1.5 1.5 0 0 1 2.916-.706ZM26.157-8.51a1.5 1.5 0 1 1-2.915.707 1.5 1.5 0 0 1 2.915-.707ZM31.989-9.922a1.5 1.5 0 1 1-2.916.706 1.5 1.5 0 0 1 2.916-.706ZM37.82-11.335a1.5 1.5 0 1 1-2.915.706 1.5 1.5 0 0 1 2.915-.706ZM43.651-12.748a1.5 1.5 0 1 1-2.915.707 1.5 1.5 0 0 1 2.915-.707ZM49.483-14.16a1.5 1.5 0 1 1-2.916.706 1.5 1.5 0 0 1 2.916-.706ZM55.314-15.573a1.5 1.5 0 1 1-2.916.706 1.5 1.5 0 0 1 2.916-.706ZM61.145-16.985a1.5 1.5 0 1 1-2.915.706 1.5 1.5 0 0 1 2.915-.706ZM66.977-18.398a1.5 1.5 0 1 1-2.916.706 1.5 1.5 0 0 1 2.916-.706ZM72.808-19.81a1.5 1.5 0 1 1-2.916.706 1.5 1.5 0 0 1 2.916-.706ZM78.64-21.223a1.5 1.5 0 1 1-2.916.706 1.5 1.5 0 0 1 2.915-.706ZM84.47-22.636a1.5 1.5 0 1 1-2.914.707 1.5 1.5 0 0 1 2.915-.707ZM90.302-24.048a1.5 1.5 0 1 1-2.916.706 1.5 1.5 0 0 1 2.916-.706ZM-23.319-8.872a1.5 1.5 0 1 1-2.915.706 1.5 1.5 0 0 1 2.915-.706ZM-17.487-10.285a1.5 1.5 0 1 1-2.916.707 1.5 1.5 0 0 1 2.916-.707ZM-11.656-11.697a1.5 1.5 0 1 1-2.916.706 1.5 1.5 0 0 1 2.916-.706ZM-5.825-13.11a1.5 1.5 0 1 1-2.915.707 1.5 1.5 0 0 1 2.915-.707ZM.007-14.522a1.5 1.5 0 1 1-2.916.706 1.5 1.5 0 0 1 2.916-.706ZM5.838-15.935a1.5 1.5 0 1 1-2.915.706 1.5 1.5 0 0 1 2.915-.706ZM11.67-17.347a1.5 1.5 0 1 1-2.916.706 1.5 1.5 0 0 1 2.915-.706ZM17.5-18.76a1.5 1.5 0 1 1-2.915.706 1.5 1.5 0 0 1 2.916-.706ZM23.332-20.173a1.5 1.5 0 1 1-2.916.707 1.5 1.5 0 0 1 2.916-.707ZM29.163-21.585a1.5 1.5 0 1 1-2.915.706 1.5 1.5 0 0 1 2.915-.706ZM34.995-22.998a1.5 1.5 0 1 1-2.916.706 1.5 1.5 0 0 1 2.916-.706ZM40.826-24.41a1.5 1.5 0 1 1-2.915.706 1.5 1.5 0 0 1 2.915-.706ZM46.658-25.823a1.5 1.5 0 1 1-2.916.706 1.5 1.5 0 0 1 2.916-.706ZM52.489-27.235a1.5 1.5 0 1 1-2.916.706 1.5 1.5 0 0 1 2.916-.706ZM58.32-28.648a1.5 1.5 0 1 1-2.915.706 1.5 1.5 0 0 1 2.915-.706ZM64.152-30.06a1.5 1.5 0 1 1-2.916.706 1.5 1.5 0 0 1 2.916-.707ZM69.983-31.473a1.5 1.5 0 1 1-2.916.706 1.5 1.5 0 0 1 2.916-.706ZM75.814-32.886a1.5 1.5 0 1 1-2.915.707 1.5 1.5 0 0 1 2.915-.707ZM81.646-34.298a1.5 1.5 0 1 1-2.916.706 1.5 1.5 0 0 1 2.916-.706ZM87.477-35.71a1.5 1.5 0 1 1-2.916.705 1.5 1.5 0 0 1 2.916-.706ZM-24.731-14.703a1.5 1.5 0 1 1-2.916.706 1.5 1.5 0 0 1 2.916-.706ZM-18.9-16.116a1.5 1.5 0 1 1-2.916.706 1.5 1.5 0 0 1 2.916-.706ZM-13.069-17.529a1.5 1.5 0 1 1-2.915.707 1.5 1.5 0 0 1 2.915-.707ZM-7.237-18.941a1.5 1.5 0 1 1-2.916.706 1.5 1.5 0 0 1 2.916-.706ZM-1.406-20.354a1.5 1.5 0 1 1-2.915.707 1.5 1.5 0 0 1 2.915-.707ZM4.426-21.766a1.5 1.5 0 1 1-2.916.706 1.5 1.5 0 0 1 2.916-.706ZM10.257-23.179a1.5 1.5 0 1 1-2.916.707 1.5 1.5 0 0 1 2.916-.707ZM16.088-24.591a1.5 1.5 0 1 1-2.915.706 1.5 1.5 0 0 1 2.915-.706ZM21.92-26.004a1.5 1.5 0 1 1-2.916.706 1.5 1.5 0 0 1 2.916-.706ZM27.751-27.416a1.5 1.5 0 1 1-2.916.706 1.5 1.5 0 0 1 2.916-.706ZM33.582-28.83a1.5 1.5 0 1 1-2.915.707 1.5 1.5 0 0 1 2.915-.706ZM39.414-30.242a1.5 1.5 0 1 1-2.916.707 1.5 1.5 0 0 1 2.916-.707ZM45.245-31.654a1.5 1.5 0 1 1-2.916.706 1.5 1.5 0 0 1 2.916-.706ZM51.076-33.067a1.5 1.5 0 1 1-2.915.706 1.5 1.5 0 0 1 2.915-.706ZM56.908-34.48a1.5 1.5 0 1 1-2.916.707 1.5 1.5 0 0 1 2.916-.706ZM62.74-35.892a1.5 1.5 0 1 1-2.917.706 1.5 1.5 0 0 1 2.916-.706ZM68.57-37.304a1.5 1.5 0 1 1-2.915.706 1.5 1.5 0 0 1 2.915-.706ZM74.402-38.717a1.5 1.5 0 1 1-2.916.706 1.5 1.5 0 0 1 2.916-.706ZM80.233-40.13a1.5 1.5 0 1 1-2.915.707 1.5 1.5 0 0 1 2.915-.707ZM86.064-41.542a1.5 1.5 0 1 1-2.915.706 1.5 1.5 0 0 1 2.915-.706ZM-16.256 20.285a1.5 1.5 0 1 1-2.915.706 1.5 1.5 0 0 1 2.915-.706ZM-10.424 18.872a1.5 1.5 0 1 1-2.916.706 1.5 1.5 0 0 1 2.916-.706ZM-4.593 17.46a1.5 1.5 0 1 1-2.916.706 1.5 1.5 0 0 1 2.916-.706ZM1.238 16.047a1.5 1.5 0 1 1-2.915.706 1.5 1.5 0 0 1 2.915-.706ZM7.07 14.634a1.5 1.5 0 1 1-2.916.707 1.5 1.5 0 0 1 2.916-.707ZM12.901 13.222a1.5 1.5 0 1 1-2.916.706 1.5 1.5 0 0 1 2.916-.706ZM18.732 11.81a1.5 1.5 0 1 1-2.915.706 1.5 1.5 0 0 1 2.915-.707ZM24.564 10.397a1.5 1.5 0 1 1-2.916.706 1.5 1.5 0 0 1 2.916-.706ZM30.395 8.984a1.5 1.5 0 1 1-2.916.707 1.5 1.5 0 0 1 2.916-.707ZM36.226 7.572a1.5 1.5 0 1 1-2.915.706 1.5 1.5 0 0 1 2.915-.706ZM42.058 6.159a1.5 1.5 0 1 1-2.916.706 1.5 1.5 0 0 1 2.916-.706ZM47.89 4.746a1.5 1.5 0 1 1-2.917.707 1.5 1.5 0 0 1 2.916-.707ZM53.72 3.334a1.5 1.5 0 1 1-2.915.706 1.5 1.5 0 0 1 2.915-.706ZM59.552 1.921a1.5 1.5 0 1 1-2.916.707 1.5 1.5 0 0 1 2.916-.707ZM65.383.509a1.5 1.5 0 1 1-2.915.706A1.5 1.5 0 0 1 65.383.51ZM71.215-.904a1.5 1.5 0 1 1-2.916.706 1.5 1.5 0 0 1 2.915-.706ZM77.046-2.316a1.5 1.5 0 1 1-2.916.706 1.5 1.5 0 0 1 2.916-.706ZM82.877-3.729a1.5 1.5 0 1 1-2.916.706 1.5 1.5 0 0 1 2.916-.706ZM88.709-5.141a1.5 1.5 0 1 1-2.916.706 1.5 1.5 0 0 1 2.915-.706ZM94.54-6.554a1.5 1.5 0 1 1-2.916.706 1.5 1.5 0 0 1 2.916-.706ZM-14.843 26.116a1.5 1.5 0 1 1-2.916.706 1.5 1.5 0 0 1 2.916-.706ZM-9.012 24.703a1.5 1.5 0 1 1-2.916.707 1.5 1.5 0 0 1 2.916-.707ZM-3.18 23.29a1.5 1.5 0 1 1-2.916.707 1.5 1.5 0 0 1 2.915-.706ZM2.65 21.878a1.5 1.5 0 1 1-2.915.707 1.5 1.5 0 0 1 2.916-.707ZM8.482 20.466a1.5 1.5 0 1 1-2.916.706 1.5 1.5 0 0 1 2.916-.706ZM14.313 19.053a1.5 1.5 0 1 1-2.915.707 1.5 1.5 0 0 1 2.915-.707ZM20.145 17.64a1.5 1.5 0 1 1-2.916.707 1.5 1.5 0 0 1 2.916-.706ZM25.976 16.228a1.5 1.5 0 1 1-2.915.706 1.5 1.5 0 0 1 2.915-.706ZM31.808 14.816a1.5 1.5 0 1 1-2.916.706 1.5 1.5 0 0 1 2.916-.707ZM37.639 13.403a1.5 1.5 0 1 1-2.915.706 1.5 1.5 0 0 1 2.915-.706ZM43.47 11.99a1.5 1.5 0 1 1-2.916.707 1.5 1.5 0 0 1 2.916-.707ZM49.302 10.578a1.5 1.5 0 1 1-2.916.706 1.5 1.5 0 0 1 2.916-.706ZM55.133 9.165a1.5 1.5 0 1 1-2.916.706 1.5 1.5 0 0 1 2.916-.706ZM60.964 7.753a1.5 1.5 0 1 1-2.915.706 1.5 1.5 0 0 1 2.915-.706ZM66.796 6.34a1.5 1.5 0 1 1-2.916.706 1.5 1.5 0 0 1 2.916-.706ZM72.627 4.928a1.5 1.5 0 1 1-2.915.706 1.5 1.5 0 0 1 2.915-.706ZM78.458 3.515a1.5 1.5 0 1 1-2.915.706 1.5 1.5 0 0 1 2.915-.706ZM84.29 2.102a1.5 1.5 0 1 1-2.916.707 1.5 1.5 0 0 1 2.916-.707ZM90.121.69a1.5 1.5 0 1 1-2.916.706A1.5 1.5 0 0 1 90.121.69ZM95.953-.723a1.5 1.5 0 1 1-2.916.706 1.5 1.5 0 0 1 2.915-.706ZM-17.668 14.453a1.5 1.5 0 1 1-2.916.707 1.5 1.5 0 0 1 2.916-.707ZM-11.837 13.04a1.5 1.5 0 1 1-2.916.707 1.5 1.5 0 0 1 2.916-.706ZM-6.006 11.628a1.5 1.5 0 1 1-2.915.707 1.5 1.5 0 0 1 2.915-.707ZM-.174 10.216a1.5 1.5 0 1 1-2.916.706 1.5 1.5 0 0 1 2.916-.706ZM5.657 8.803a1.5 1.5 0 1 1-2.916.706 1.5 1.5 0 0 1 2.916-.706ZM11.488 7.39a1.5 1.5 0 1 1-2.915.707 1.5 1.5 0 0 1 2.915-.706ZM17.32 5.978a1.5 1.5 0 1 1-2.916.706 1.5 1.5 0 0 1 2.916-.706ZM23.151 4.565a1.5 1.5 0 1 1-2.916.707 1.5 1.5 0 0 1 2.916-.707ZM28.983 3.153a1.5 1.5 0 1 1-2.916.706 1.5 1.5 0 0 1 2.916-.706ZM34.814 1.74a1.5 1.5 0 1 1-2.916.707 1.5 1.5 0 0 1 2.916-.707ZM40.645.328a1.5 1.5 0 1 1-2.916.706 1.5 1.5 0 0 1 2.916-.706ZM46.477-1.085a1.5 1.5 0 1 1-2.916.706 1.5 1.5 0 0 1 2.916-.706ZM52.308-2.497a1.5 1.5 0 1 1-2.916.706 1.5 1.5 0 0 1 2.916-.706ZM58.14-3.91a1.5 1.5 0 1 1-2.916.706 1.5 1.5 0 0 1 2.915-.706ZM63.97-5.323a1.5 1.5 0 1 1-2.915.707 1.5 1.5 0 0 1 2.916-.707ZM69.802-6.735a1.5 1.5 0 1 1-2.916.706 1.5 1.5 0 0 1 2.916-.706ZM75.633-8.148a1.5 1.5 0 1 1-2.916.706 1.5 1.5 0 0 1 2.916-.706ZM81.465-9.56a1.5 1.5 0 1 1-2.916.706 1.5 1.5 0 0 1 2.916-.706ZM87.296-10.973a1.5 1.5 0 1 1-2.916.706 1.5 1.5 0 0 1 2.916-.706ZM93.127-12.385a1.5 1.5 0 1 1-2.915.706 1.5 1.5 0 0 1 2.915-.706ZM-19.08 8.622a1.5 1.5 0 1 1-2.917.706 1.5 1.5 0 0 1 2.916-.706ZM-13.25 7.21a1.5 1.5 0 1 1-2.915.706 1.5 1.5 0 0 1 2.915-.707ZM-7.418 5.797a1.5 1.5 0 1 1-2.916.706 1.5 1.5 0 0 1 2.916-.706ZM-1.587 4.384a1.5 1.5 0 1 1-2.916.707 1.5 1.5 0 0 1 2.916-.707ZM4.244 2.972a1.5 1.5 0 1 1-2.915.706 1.5 1.5 0 0 1 2.915-.706ZM10.076 1.56a1.5 1.5 0 1 1-2.916.706 1.5 1.5 0 0 1 2.916-.707ZM15.907.147a1.5 1.5 0 1 1-2.916.706 1.5 1.5 0 0 1 2.916-.706ZM21.738-1.266a1.5 1.5 0 1 1-2.915.706 1.5 1.5 0 0 1 2.915-.706ZM27.57-2.679a1.5 1.5 0 1 1-2.916.707 1.5 1.5 0 0 1 2.916-.707ZM33.401-4.091a1.5 1.5 0 1 1-2.915.706A1.5 1.5 0 0 1 33.4-4.09ZM39.233-5.504a1.5 1.5 0 1 1-2.916.707 1.5 1.5 0 0 1 2.916-.707ZM45.064-6.916a1.5 1.5 0 1 1-2.916.706 1.5 1.5 0 0 1 2.916-.706ZM50.895-8.329a1.5 1.5 0 1 1-2.916.706 1.5 1.5 0 0 1 2.916-.706ZM56.727-9.741a1.5 1.5 0 1 1-2.916.706 1.5 1.5 0 0 1 2.916-.706ZM62.558-11.154a1.5 1.5 0 1 1-2.916.706 1.5 1.5 0 0 1 2.916-.706ZM68.39-12.566a1.5 1.5 0 1 1-2.916.706 1.5 1.5 0 0 1 2.915-.707ZM74.22-13.98a1.5 1.5 0 1 1-2.915.707 1.5 1.5 0 0 1 2.916-.706ZM80.052-15.392a1.5 1.5 0 1 1-2.916.707 1.5 1.5 0 0 1 2.916-.707ZM85.883-16.804a1.5 1.5 0 1 1-2.915.706 1.5 1.5 0 0 1 2.915-.706ZM91.715-18.217a1.5 1.5 0 1 1-2.916.706 1.5 1.5 0 0 1 2.916-.706ZM-10.605 43.61a1.5 1.5 0 1 1-2.916.706 1.5 1.5 0 0 1 2.916-.706ZM-4.774 42.197a1.5 1.5 0 1 1-2.916.707 1.5 1.5 0 0 1 2.916-.707ZM1.057 40.785a1.5 1.5 0 1 1-2.916.706 1.5 1.5 0 0 1 2.916-.706ZM6.889 39.372a1.5 1.5 0 1 1-2.916.707 1.5 1.5 0 0 1 2.916-.707ZM12.72 37.96a1.5 1.5 0 1 1-2.916.706 1.5 1.5 0 0 1 2.916-.706ZM18.551 36.547a1.5 1.5 0 1 1-2.915.707 1.5 1.5 0 0 1 2.915-.707ZM24.383 35.135a1.5 1.5 0 1 1-2.916.706 1.5 1.5 0 0 1 2.916-.706ZM30.214 33.722a1.5 1.5 0 1 1-2.915.707 1.5 1.5 0 0 1 2.915-.707ZM36.045 32.31a1.5 1.5 0 1 1-2.916.706 1.5 1.5 0 0 1 2.916-.706ZM41.877 30.897a1.5 1.5 0 1 1-2.916.706 1.5 1.5 0 0 1 2.916-.706ZM47.708 29.485a1.5 1.5 0 1 1-2.916.706 1.5 1.5 0 0 1 2.916-.706ZM53.54 28.072a1.5 1.5 0 1 1-2.916.706 1.5 1.5 0 0 1 2.915-.706ZM59.37 26.66a1.5 1.5 0 1 1-2.915.706 1.5 1.5 0 0 1 2.916-.707ZM65.202 25.247a1.5 1.5 0 1 1-2.915.706 1.5 1.5 0 0 1 2.915-.706ZM71.033 23.834a1.5 1.5 0 1 1-2.916.706 1.5 1.5 0 0 1 2.916-.706ZM76.865 22.422a1.5 1.5 0 1 1-2.916.706 1.5 1.5 0 0 1 2.916-.706ZM82.696 21.01a1.5 1.5 0 1 1-2.916.705 1.5 1.5 0 0 1 2.916-.706ZM88.527 19.596a1.5 1.5 0 1 1-2.915.707 1.5 1.5 0 0 1 2.915-.707ZM94.359 18.184a1.5 1.5 0 1 1-2.916.706 1.5 1.5 0 0 1 2.916-.706ZM100.19 16.771a1.5 1.5 0 1 1-2.915.707 1.5 1.5 0 0 1 2.915-.707ZM-9.193 49.441a1.5 1.5 0 1 1-2.915.707 1.5 1.5 0 0 1 2.915-.707ZM-3.362 48.029a1.5 1.5 0 1 1-2.915.706 1.5 1.5 0 0 1 2.915-.706ZM2.47 46.616a1.5 1.5 0 1 1-2.916.707 1.5 1.5 0 0 1 2.916-.707ZM8.301 45.204a1.5 1.5 0 1 1-2.915.706 1.5 1.5 0 0 1 2.915-.706ZM14.132 43.791a1.5 1.5 0 1 1-2.915.707 1.5 1.5 0 0 1 2.915-.707ZM19.964 42.379a1.5 1.5 0 1 1-2.916.706 1.5 1.5 0 0 1 2.916-.706ZM25.795 40.966a1.5 1.5 0 1 1-2.915.706 1.5 1.5 0 0 1 2.915-.706ZM31.627 39.553a1.5 1.5 0 1 1-2.916.707 1.5 1.5 0 0 1 2.916-.706ZM37.458 38.14a1.5 1.5 0 1 1-2.916.707 1.5 1.5 0 0 1 2.916-.706ZM43.29 36.728a1.5 1.5 0 1 1-2.916.707 1.5 1.5 0 0 1 2.915-.707ZM49.12 35.316a1.5 1.5 0 1 1-2.915.706 1.5 1.5 0 0 1 2.916-.706ZM54.952 33.903a1.5 1.5 0 1 1-2.916.707 1.5 1.5 0 0 1 2.916-.707ZM60.783 32.49a1.5 1.5 0 1 1-2.915.707 1.5 1.5 0 0 1 2.915-.706ZM66.615 31.078a1.5 1.5 0 1 1-2.916.706 1.5 1.5 0 0 1 2.916-.706ZM72.446 29.666a1.5 1.5 0 1 1-2.916.706 1.5 1.5 0 0 1 2.916-.706ZM78.277 28.253a1.5 1.5 0 1 1-2.916.706 1.5 1.5 0 0 1 2.916-.706ZM84.109 26.84a1.5 1.5 0 1 1-2.916.707 1.5 1.5 0 0 1 2.916-.707ZM89.94 25.428a1.5 1.5 0 1 1-2.915.706 1.5 1.5 0 0 1 2.915-.706ZM95.771 24.015a1.5 1.5 0 1 1-2.916.706 1.5 1.5 0 0 1 2.916-.706ZM101.603 22.603a1.5 1.5 0 1 1-2.917.705 1.5 1.5 0 0 1 2.917-.705ZM-12.018 37.779a1.5 1.5 0 1 1-2.916.706 1.5 1.5 0 0 1 2.916-.706ZM-6.187 36.366a1.5 1.5 0 1 1-2.916.706 1.5 1.5 0 0 1 2.916-.706ZM-.355 34.954a1.5 1.5 0 1 1-2.916.706 1.5 1.5 0 0 1 2.916-.706ZM5.476 33.541a1.5 1.5 0 1 1-2.916.706 1.5 1.5 0 0 1 2.916-.706ZM11.307 32.129a1.5 1.5 0 1 1-2.915.706 1.5 1.5 0 0 1 2.915-.706ZM17.139 30.716a1.5 1.5 0 1 1-2.916.706 1.5 1.5 0 0 1 2.916-.706ZM22.97 29.303a1.5 1.5 0 1 1-2.915.707 1.5 1.5 0 0 1 2.915-.707ZM28.801 27.89a1.5 1.5 0 1 1-2.916.707 1.5 1.5 0 0 1 2.916-.706ZM34.633 26.478a1.5 1.5 0 1 1-2.916.707 1.5 1.5 0 0 1 2.916-.707ZM40.464 25.066a1.5 1.5 0 1 1-2.916.706 1.5 1.5 0 0 1 2.916-.706ZM46.295 23.653a1.5 1.5 0 1 1-2.915.706 1.5 1.5 0 0 1 2.915-.706ZM52.127 22.24a1.5 1.5 0 1 1-2.916.707 1.5 1.5 0 0 1 2.916-.706ZM57.958 20.828a1.5 1.5 0 1 1-2.915.706 1.5 1.5 0 0 1 2.915-.706ZM63.79 19.415a1.5 1.5 0 1 1-2.916.707 1.5 1.5 0 0 1 2.915-.707ZM69.62 18.003a1.5 1.5 0 1 1-2.915.706 1.5 1.5 0 0 1 2.916-.706ZM75.452 16.59a1.5 1.5 0 1 1-2.915.706 1.5 1.5 0 0 1 2.915-.706ZM81.284 15.178a1.5 1.5 0 1 1-2.916.706 1.5 1.5 0 0 1 2.916-.706ZM87.115 13.765a1.5 1.5 0 1 1-2.916.706 1.5 1.5 0 0 1 2.916-.706ZM92.946 12.353a1.5 1.5 0 1 1-2.915.706 1.5 1.5 0 0 1 2.915-.706ZM98.778 10.94a1.5 1.5 0 1 1-2.916.706 1.5 1.5 0 0 1 2.916-.706ZM-13.43 31.947a1.5 1.5 0 1 1-2.916.707 1.5 1.5 0 0 1 2.915-.707ZM-7.6 30.535a1.5 1.5 0 1 1-2.915.706 1.5 1.5 0 0 1 2.916-.706ZM-1.768 29.122a1.5 1.5 0 1 1-2.916.707 1.5 1.5 0 0 1 2.916-.707ZM4.063 27.71a1.5 1.5 0 1 1-2.915.706 1.5 1.5 0 0 1 2.915-.706ZM9.895 26.297a1.5 1.5 0 1 1-2.916.706 1.5 1.5 0 0 1 2.916-.706ZM15.726 24.885a1.5 1.5 0 1 1-2.916.706 1.5 1.5 0 0 1 2.916-.706ZM21.558 23.472a1.5 1.5 0 1 1-2.916.706 1.5 1.5 0 0 1 2.916-.706ZM27.389 22.06a1.5 1.5 0 1 1-2.916.706 1.5 1.5 0 0 1 2.916-.707ZM33.22 20.647a1.5 1.5 0 1 1-2.916.706 1.5 1.5 0 0 1 2.916-.706ZM39.051 19.234a1.5 1.5 0 1 1-2.915.707 1.5 1.5 0 0 1 2.915-.707ZM44.883 17.822a1.5 1.5 0 1 1-2.916.706 1.5 1.5 0 0 1 2.916-.706ZM50.714 16.41a1.5 1.5 0 1 1-2.916.705 1.5 1.5 0 0 1 2.916-.706ZM56.546 14.997a1.5 1.5 0 1 1-2.916.706 1.5 1.5 0 0 1 2.916-.706ZM62.377 13.584a1.5 1.5 0 1 1-2.916.706 1.5 1.5 0 0 1 2.916-.706ZM68.208 12.171a1.5 1.5 0 1 1-2.916.707 1.5 1.5 0 0 1 2.916-.707ZM74.04 10.759a1.5 1.5 0 1 1-2.916.706 1.5 1.5 0 0 1 2.916-.706ZM79.871 9.346a1.5 1.5 0 1 1-2.916.707 1.5 1.5 0 0 1 2.916-.707ZM85.702 7.934a1.5 1.5 0 1 1-2.915.706 1.5 1.5 0 0 1 2.915-.706ZM91.534 6.521a1.5 1.5 0 1 1-2.916.706 1.5 1.5 0 0 1 2.916-.706ZM97.365 5.109a1.5 1.5 0 1 1-2.915.706 1.5 1.5 0 0 1 2.915-.706ZM-4.955 66.936a1.5 1.5 0 1 1-2.916.706 1.5 1.5 0 0 1 2.916-.706ZM.876 65.523a1.5 1.5 0 1 1-2.915.706 1.5 1.5 0 0 1 2.915-.706ZM6.707 64.11a1.5 1.5 0 1 1-2.915.707 1.5 1.5 0 0 1 2.915-.707ZM12.539 62.698a1.5 1.5 0 1 1-2.916.706 1.5 1.5 0 0 1 2.916-.706ZM18.37 61.285a1.5 1.5 0 1 1-2.915.707 1.5 1.5 0 0 1 2.915-.707ZM24.201 59.873a1.5 1.5 0 1 1-2.915.706 1.5 1.5 0 0 1 2.915-.706ZM30.033 58.46a1.5 1.5 0 1 1-2.916.707 1.5 1.5 0 0 1 2.916-.707ZM35.864 57.048a1.5 1.5 0 1 1-2.915.706 1.5 1.5 0 0 1 2.915-.706ZM41.696 55.635a1.5 1.5 0 1 1-2.916.706 1.5 1.5 0 0 1 2.916-.706ZM47.527 54.222a1.5 1.5 0 1 1-2.916.707 1.5 1.5 0 0 1 2.916-.707ZM53.358 52.81a1.5 1.5 0 1 1-2.915.706 1.5 1.5 0 0 1 2.915-.706ZM59.19 51.397a1.5 1.5 0 1 1-2.916.707 1.5 1.5 0 0 1 2.916-.707ZM65.021 49.985a1.5 1.5 0 1 1-2.916.706 1.5 1.5 0 0 1 2.916-.706ZM70.852 48.572a1.5 1.5 0 1 1-2.915.706 1.5 1.5 0 0 1 2.915-.706ZM76.684 47.16a1.5 1.5 0 1 1-2.916.706 1.5 1.5 0 0 1 2.916-.706ZM82.515 45.747a1.5 1.5 0 1 1-2.916.706 1.5 1.5 0 0 1 2.916-.706ZM88.346 44.334a1.5 1.5 0 1 1-2.915.707 1.5 1.5 0 0 1 2.915-.706ZM94.178 42.922a1.5 1.5 0 1 1-2.916.706 1.5 1.5 0 0 1 2.916-.706ZM100.009 41.51a1.5 1.5 0 1 1-2.916.706 1.5 1.5 0 0 1 2.916-.707ZM105.84 40.097a1.5 1.5 0 1 1-2.915.707 1.5 1.5 0 0 1 2.915-.707ZM-3.543 72.767a1.5 1.5 0 1 1-2.915.706 1.5 1.5 0 0 1 2.915-.706ZM2.289 71.354a1.5 1.5 0 1 1-2.916.707 1.5 1.5 0 0 1 2.916-.707ZM8.12 69.942a1.5 1.5 0 1 1-2.916.706 1.5 1.5 0 0 1 2.916-.706ZM13.951 68.53a1.5 1.5 0 1 1-2.915.705 1.5 1.5 0 0 1 2.915-.706ZM19.783 67.117a1.5 1.5 0 1 1-2.916.706 1.5 1.5 0 0 1 2.916-.706ZM25.614 65.704a1.5 1.5 0 1 1-2.916.706 1.5 1.5 0 0 1 2.916-.706ZM31.445 64.291a1.5 1.5 0 1 1-2.915.707 1.5 1.5 0 0 1 2.915-.707ZM37.277 62.879a1.5 1.5 0 1 1-2.916.706 1.5 1.5 0 0 1 2.916-.706ZM43.108 61.466a1.5 1.5 0 1 1-2.915.707 1.5 1.5 0 0 1 2.915-.707ZM48.94 60.054a1.5 1.5 0 1 1-2.916.706 1.5 1.5 0 0 1 2.916-.706ZM54.77 58.641a1.5 1.5 0 1 1-2.915.707 1.5 1.5 0 0 1 2.916-.707ZM60.602 57.229a1.5 1.5 0 1 1-2.916.706 1.5 1.5 0 0 1 2.916-.706ZM66.433 55.816a1.5 1.5 0 1 1-2.915.706 1.5 1.5 0 0 1 2.915-.706ZM72.265 54.404a1.5 1.5 0 1 1-2.916.706 1.5 1.5 0 0 1 2.916-.706ZM78.096 52.99a1.5 1.5 0 1 1-2.915.707 1.5 1.5 0 0 1 2.915-.706ZM83.928 51.578a1.5 1.5 0 1 1-2.916.707 1.5 1.5 0 0 1 2.916-.707ZM89.759 50.166a1.5 1.5 0 1 1-2.915.706 1.5 1.5 0 0 1 2.915-.706ZM95.59 48.753a1.5 1.5 0 1 1-2.915.706 1.5 1.5 0 0 1 2.915-.706ZM101.422 47.34a1.5 1.5 0 1 1-2.917.706 1.5 1.5 0 0 1 2.917-.705ZM107.253 45.928a1.5 1.5 0 1 1-2.916.706 1.5 1.5 0 0 1 2.916-.706ZM-2.13 78.598a1.5 1.5 0 1 1-2.916.707 1.5 1.5 0 0 1 2.916-.707ZM3.701 77.186a1.5 1.5 0 1 1-2.915.706 1.5 1.5 0 0 1 2.915-.706ZM9.533 75.773a1.5 1.5 0 1 1-2.916.706 1.5 1.5 0 0 1 2.916-.706ZM15.364 74.36a1.5 1.5 0 1 1-2.915.707 1.5 1.5 0 0 1 2.915-.706ZM21.195 72.948a1.5 1.5 0 1 1-2.915.706 1.5 1.5 0 0 1 2.915-.706ZM27.027 71.535a1.5 1.5 0 1 1-2.916.707 1.5 1.5 0 0 1 2.916-.707ZM32.858 70.123a1.5 1.5 0 1 1-2.916.706 1.5 1.5 0 0 1 2.916-.706ZM38.69 68.71a1.5 1.5 0 1 1-2.916.707 1.5 1.5 0 0 1 2.915-.707ZM44.52 67.298a1.5 1.5 0 1 1-2.915.706 1.5 1.5 0 0 1 2.916-.706ZM50.352 65.885a1.5 1.5 0 1 1-2.915.707 1.5 1.5 0 0 1 2.915-.707ZM56.183 64.473a1.5 1.5 0 1 1-2.915.706 1.5 1.5 0 0 1 2.915-.706ZM62.015 63.06a1.5 1.5 0 1 1-2.916.706 1.5 1.5 0 0 1 2.916-.706ZM67.846 61.647a1.5 1.5 0 1 1-2.916.707 1.5 1.5 0 0 1 2.916-.707ZM73.677 60.235a1.5 1.5 0 1 1-2.915.706 1.5 1.5 0 0 1 2.915-.706ZM79.509 58.822a1.5 1.5 0 1 1-2.916.706 1.5 1.5 0 0 1 2.916-.706ZM85.34 57.41a1.5 1.5 0 1 1-2.915.706 1.5 1.5 0 0 1 2.915-.706ZM91.171 55.997a1.5 1.5 0 1 1-2.915.706 1.5 1.5 0 0 1 2.915-.706ZM97.003 54.585a1.5 1.5 0 1 1-2.916.706 1.5 1.5 0 0 1 2.916-.706ZM102.834 53.172a1.5 1.5 0 1 1-2.915.707 1.5 1.5 0 0 1 2.915-.707ZM108.666 51.76a1.5 1.5 0 1 1-2.916.705 1.5 1.5 0 0 1 2.916-.706ZM-.718 84.43a1.5 1.5 0 1 1-2.915.706 1.5 1.5 0 0 1 2.915-.706ZM5.114 83.017a1.5 1.5 0 1 1-2.916.706 1.5 1.5 0 0 1 2.916-.706ZM10.945 81.604a1.5 1.5 0 1 1-2.915.707 1.5 1.5 0 0 1 2.915-.707ZM16.776 80.192a1.5 1.5 0 1 1-2.915.706 1.5 1.5 0 0 1 2.915-.706ZM22.608 78.78a1.5 1.5 0 1 1-2.916.706 1.5 1.5 0 0 1 2.916-.707ZM28.44 77.367a1.5 1.5 0 1 1-2.917.706 1.5 1.5 0 0 1 2.916-.706ZM34.27 75.954a1.5 1.5 0 1 1-2.915.707 1.5 1.5 0 0 1 2.915-.707ZM40.102 74.542a1.5 1.5 0 1 1-2.916.706 1.5 1.5 0 0 1 2.916-.706ZM45.933 73.129a1.5 1.5 0 1 1-2.915.706 1.5 1.5 0 0 1 2.915-.706ZM51.765 71.716a1.5 1.5 0 1 1-2.916.707 1.5 1.5 0 0 1 2.916-.707ZM57.596 70.304a1.5 1.5 0 1 1-2.916.706 1.5 1.5 0 0 1 2.916-.706ZM63.427 68.891a1.5 1.5 0 1 1-2.915.707 1.5 1.5 0 0 1 2.915-.707ZM69.259 67.479a1.5 1.5 0 1 1-2.916.706 1.5 1.5 0 0 1 2.916-.706ZM75.09 66.066a1.5 1.5 0 1 1-2.916.707 1.5 1.5 0 0 1 2.916-.707ZM80.921 64.654a1.5 1.5 0 1 1-2.915.706 1.5 1.5 0 0 1 2.915-.706ZM86.753 63.241a1.5 1.5 0 1 1-2.916.706 1.5 1.5 0 0 1 2.916-.706ZM92.584 61.828a1.5 1.5 0 1 1-2.916.707 1.5 1.5 0 0 1 2.916-.706ZM98.415 60.416a1.5 1.5 0 1 1-2.915.706 1.5 1.5 0 0 1 2.915-.706ZM104.247 59.003a1.5 1.5 0 1 1-2.917.706 1.5 1.5 0 0 1 2.917-.706ZM110.078 57.59a1.5 1.5 0 1 1-2.915.708 1.5 1.5 0 0 1 2.915-.707ZM.695 90.26a1.5 1.5 0 1 1-2.916.707 1.5 1.5 0 0 1 2.916-.706ZM6.526 88.848a1.5 1.5 0 1 1-2.915.707 1.5 1.5 0 0 1 2.915-.707ZM12.358 87.436a1.5 1.5 0 1 1-2.916.706 1.5 1.5 0 0 1 2.916-.706ZM18.19 86.023a1.5 1.5 0 1 1-2.917.706 1.5 1.5 0 0 1 2.916-.706ZM24.02 84.61a1.5 1.5 0 1 1-2.915.707 1.5 1.5 0 0 1 2.915-.706ZM29.852 83.198a1.5 1.5 0 1 1-2.916.706 1.5 1.5 0 0 1 2.916-.706ZM35.683 81.785a1.5 1.5 0 1 1-2.915.707 1.5 1.5 0 0 1 2.915-.707ZM41.514 80.373a1.5 1.5 0 1 1-2.915.706 1.5 1.5 0 0 1 2.916-.706ZM47.346 78.96a1.5 1.5 0 1 1-2.916.707 1.5 1.5 0 0 1 2.916-.707ZM53.177 77.548a1.5 1.5 0 1 1-2.916.706 1.5 1.5 0 0 1 2.916-.706ZM59.008 76.135a1.5 1.5 0 1 1-2.915.707 1.5 1.5 0 0 1 2.915-.707ZM64.84 74.723a1.5 1.5 0 1 1-2.916.706 1.5 1.5 0 0 1 2.916-.706ZM70.671 73.31a1.5 1.5 0 1 1-2.915.707 1.5 1.5 0 0 1 2.915-.707ZM76.503 71.898a1.5 1.5 0 1 1-2.916.706 1.5 1.5 0 0 1 2.916-.706ZM82.334 70.485a1.5 1.5 0 1 1-2.916.706 1.5 1.5 0 0 1 2.916-.706ZM88.165 69.072a1.5 1.5 0 1 1-2.915.707 1.5 1.5 0 0 1 2.915-.707ZM93.997 67.66a1.5 1.5 0 1 1-2.916.706 1.5 1.5 0 0 1 2.916-.706ZM99.828 66.247a1.5 1.5 0 1 1-2.916.706 1.5 1.5 0 0 1 2.916-.706ZM105.659 64.835a1.5 1.5 0 1 1-2.915.707 1.5 1.5 0 0 1 2.915-.707ZM111.491 63.422a1.5 1.5 0 1 1-2.916.706 1.5 1.5 0 0 1 2.916-.706ZM2.108 96.092a1.5 1.5 0 1 1-2.916.707 1.5 1.5 0 0 1 2.916-.707ZM7.939 94.68a1.5 1.5 0 1 1-2.916.706 1.5 1.5 0 0 1 2.916-.706ZM13.77 93.267a1.5 1.5 0 1 1-2.915.706 1.5 1.5 0 0 1 2.915-.706ZM19.602 91.855a1.5 1.5 0 1 1-2.916.706 1.5 1.5 0 0 1 2.916-.706ZM25.433 90.442a1.5 1.5 0 1 1-2.916.706 1.5 1.5 0 0 1 2.916-.706ZM31.264 89.03a1.5 1.5 0 1 1-2.915.706 1.5 1.5 0 0 1 2.915-.707ZM37.096 87.617a1.5 1.5 0 1 1-2.916.706 1.5 1.5 0 0 1 2.916-.706ZM42.927 86.204a1.5 1.5 0 1 1-2.915.707 1.5 1.5 0 0 1 2.915-.707ZM48.758 84.792a1.5 1.5 0 1 1-2.915.706 1.5 1.5 0 0 1 2.915-.706ZM54.59 83.38a1.5 1.5 0 1 1-2.916.706 1.5 1.5 0 0 1 2.916-.707ZM60.421 81.967a1.5 1.5 0 1 1-2.916.706 1.5 1.5 0 0 1 2.916-.706ZM66.252 80.554a1.5 1.5 0 1 1-2.915.706 1.5 1.5 0 0 1 2.915-.706ZM72.084 79.141a1.5 1.5 0 1 1-2.916.707 1.5 1.5 0 0 1 2.916-.707ZM77.915 77.729a1.5 1.5 0 1 1-2.915.706 1.5 1.5 0 0 1 2.915-.706ZM83.746 76.316a1.5 1.5 0 1 1-2.915.707 1.5 1.5 0 0 1 2.915-.707ZM89.578 74.904a1.5 1.5 0 1 1-2.916.706 1.5 1.5 0 0 1 2.916-.706ZM95.41 73.491a1.5 1.5 0 1 1-2.917.706 1.5 1.5 0 0 1 2.916-.706ZM101.241 72.079a1.5 1.5 0 1 1-2.916.705 1.5 1.5 0 0 1 2.916-.705ZM107.072 70.666a1.5 1.5 0 1 1-2.917.706 1.5 1.5 0 0 1 2.917-.706ZM112.903 69.254a1.5 1.5 0 1 1-2.915.707 1.5 1.5 0 0 1 2.915-.707ZM-6.368 61.104a1.5 1.5 0 1 1-2.915.706 1.5 1.5 0 0 1 2.915-.706ZM-.536 59.692a1.5 1.5 0 1 1-2.916.706 1.5 1.5 0 0 1 2.916-.706ZM5.295 58.279a1.5 1.5 0 1 1-2.916.706 1.5 1.5 0 0 1 2.916-.706ZM11.126 56.867a1.5 1.5 0 1 1-2.915.706 1.5 1.5 0 0 1 2.915-.706ZM16.958 55.454a1.5 1.5 0 1 1-2.916.706 1.5 1.5 0 0 1 2.916-.706ZM22.789 54.041a1.5 1.5 0 1 1-2.915.707 1.5 1.5 0 0 1 2.915-.707ZM28.62 52.629a1.5 1.5 0 1 1-2.915.706 1.5 1.5 0 0 1 2.915-.706ZM34.452 51.216a1.5 1.5 0 1 1-2.916.707 1.5 1.5 0 0 1 2.916-.707ZM40.283 49.804a1.5 1.5 0 1 1-2.916.706 1.5 1.5 0 0 1 2.916-.706ZM46.114 48.391a1.5 1.5 0 1 1-2.915.706 1.5 1.5 0 0 1 2.915-.706ZM51.946 46.978a1.5 1.5 0 1 1-2.916.707 1.5 1.5 0 0 1 2.916-.707ZM57.777 45.566a1.5 1.5 0 1 1-2.915.706 1.5 1.5 0 0 1 2.915-.706ZM63.608 44.153a1.5 1.5 0 1 1-2.916.707 1.5 1.5 0 0 1 2.916-.707ZM69.44 42.74a1.5 1.5 0 1 1-2.916.707 1.5 1.5 0 0 1 2.916-.706ZM75.271 41.328a1.5 1.5 0 1 1-2.916.706 1.5 1.5 0 0 1 2.916-.706ZM81.102 39.916a1.5 1.5 0 1 1-2.915.706 1.5 1.5 0 0 1 2.915-.706ZM86.934 38.503a1.5 1.5 0 1 1-2.916.706 1.5 1.5 0 0 1 2.916-.706ZM92.765 37.09a1.5 1.5 0 1 1-2.915.707 1.5 1.5 0 0 1 2.915-.706ZM98.597 35.678a1.5 1.5 0 1 1-2.916.706 1.5 1.5 0 0 1 2.916-.706ZM104.428 34.265a1.5 1.5 0 1 1-2.916.706 1.5 1.5 0 0 1 2.916-.706ZM-7.78 55.273a1.5 1.5 0 1 1-2.916.706 1.5 1.5 0 0 1 2.916-.706ZM-1.949 53.86a1.5 1.5 0 1 1-2.916.707 1.5 1.5 0 0 1 2.916-.707ZM3.882 52.448a1.5 1.5 0 1 1-2.916.706 1.5 1.5 0 0 1 2.916-.706ZM9.714 51.035a1.5 1.5 0 1 1-2.916.706 1.5 1.5 0 0 1 2.916-.706ZM15.545 49.623a1.5 1.5 0 1 1-2.916.706 1.5 1.5 0 0 1 2.916-.706ZM21.376 48.21a1.5 1.5 0 1 1-2.916.706 1.5 1.5 0 0 1 2.916-.706ZM27.208 46.797a1.5 1.5 0 1 1-2.916.707 1.5 1.5 0 0 1 2.916-.707ZM33.04 45.385a1.5 1.5 0 1 1-2.917.706 1.5 1.5 0 0 1 2.916-.706ZM38.87 43.972a1.5 1.5 0 1 1-2.915.707 1.5 1.5 0 0 1 2.915-.707ZM44.702 42.56a1.5 1.5 0 1 1-2.916.706 1.5 1.5 0 0 1 2.916-.706ZM50.533 41.147a1.5 1.5 0 1 1-2.915.707 1.5 1.5 0 0 1 2.915-.707ZM56.364 39.735a1.5 1.5 0 1 1-2.915.706 1.5 1.5 0 0 1 2.916-.706ZM62.196 38.322a1.5 1.5 0 1 1-2.916.706 1.5 1.5 0 0 1 2.916-.706ZM68.027 36.91a1.5 1.5 0 1 1-2.915.706 1.5 1.5 0 0 1 2.915-.706ZM73.859 35.497a1.5 1.5 0 1 1-2.916.706 1.5 1.5 0 0 1 2.916-.706ZM79.69 34.084a1.5 1.5 0 1 1-2.916.707 1.5 1.5 0 0 1 2.916-.707ZM85.521 32.672a1.5 1.5 0 1 1-2.915.706 1.5 1.5 0 0 1 2.915-.706ZM91.353 31.26a1.5 1.5 0 1 1-2.916.705 1.5 1.5 0 0 1 2.916-.706ZM97.184 29.847a1.5 1.5 0 1 1-2.915.706 1.5 1.5 0 0 1 2.915-.706ZM103.015 28.434a1.5 1.5 0 1 1-2.915.707 1.5 1.5 0 0 1 2.915-.707Z"/></g></g><g clip-path="url(#d)" fill="#0098DC"><path d="M14 6H8v6h6V6ZM20 12h-6v6h6v-6ZM26 6h-6v6h6V6ZM14 18H8v6h6v-6Z"/></g><defs><clipPath id="a"><path fill="#fff" d="M0 0h120v30H0z"/></clipPath><clipPath id="d"><path fill="#fff" transform="translate(8 6)" d="M0 0h18v18H0z"/></clipPath><linearGradient id="b" x1="68" y1="0" x2="68" y2="69" gradientUnits="userSpaceOnUse"><stop stop-color="#fff" stop-opacity="0"/><stop offset="1" stop-color="#fff"/></linearGradient></defs></svg>
