<svg width="250" height="32" fill="none" xmlns="http://www.w3.org/2000/svg"><g clip-path="url(#a)"><path fill="#5994D1" d="M0 0h250v32H0z"/><mask id="c" style="mask-type:alpha" maskUnits="userSpaceOnUse" x="116" y="-15" width="152" height="112"><path transform="rotate(-20 147.365 -313.177)" fill="url(#b)" d="M0 0h136v69H0z"/></mask><g mask="url(#c)" fill="#fff"><path d="M162.356-.439a1.072 1.072 0 1 1-2.084.505 1.072 1.072 0 0 1 2.084-.505ZM166.524-1.448a1.072 1.072 0 1 1-2.084.504 1.072 1.072 0 0 1 2.084-.504ZM170.692-2.458a1.072 1.072 0 1 1-2.084.504 1.072 1.072 0 0 1 2.084-.504ZM174.86-3.468a1.072 1.072 0 1 1-2.084.505 1.072 1.072 0 0 1 2.084-.505ZM179.028-4.477a1.072 1.072 0 1 1-2.084.504 1.072 1.072 0 0 1 2.084-.504ZM183.196-5.487a1.072 1.072 0 1 1-2.084.504 1.072 1.072 0 0 1 2.084-.504ZM187.364-6.497a1.072 1.072 0 1 1-2.084.505 1.072 1.072 0 0 1 2.084-.505ZM191.532-7.506a1.072 1.072 0 1 1-2.084.504 1.072 1.072 0 0 1 2.084-.504ZM195.7-8.516a1.072 1.072 0 1 1-2.084.504 1.072 1.072 0 0 1 2.084-.504ZM199.868-9.526a1.072 1.072 0 1 1-2.084.505 1.072 1.072 0 0 1 2.084-.505ZM204.036-10.535a1.072 1.072 0 1 1-2.084.504 1.072 1.072 0 0 1 2.084-.504ZM208.204-11.545a1.072 1.072 0 1 1-2.084.504 1.072 1.072 0 0 1 2.084-.504ZM212.372-12.555a1.072 1.072 0 1 1-2.084.505 1.072 1.072 0 0 1 2.084-.505ZM216.54-13.564a1.072 1.072 0 1 1-2.084.504 1.072 1.072 0 0 1 2.084-.504ZM220.708-14.574a1.072 1.072 0 1 1-2.084.505 1.072 1.072 0 0 1 2.084-.505ZM224.876-15.584a1.072 1.072 0 1 1-2.085.505 1.072 1.072 0 0 1 2.085-.505ZM229.044-16.593a1.072 1.072 0 1 1-2.084.504 1.072 1.072 0 0 1 2.084-.504ZM233.212-17.603a1.072 1.072 0 1 1-2.085.505 1.072 1.072 0 0 1 2.085-.505ZM237.38-18.612a1.072 1.072 0 1 1-2.084.504 1.072 1.072 0 0 1 2.084-.504ZM241.548-19.622a1.072 1.072 0 1 1-2.084.504 1.072 1.072 0 0 1 2.084-.504ZM163.365 3.73a1.072 1.072 0 1 1-2.083.505 1.072 1.072 0 0 1 2.083-.506ZM167.533 2.72a1.072 1.072 0 1 1-2.083.505 1.072 1.072 0 0 1 2.083-.505ZM171.701 1.71a1.072 1.072 0 1 1-2.083.506 1.072 1.072 0 0 1 2.083-.506ZM175.869.7a1.072 1.072 0 1 1-2.083.506A1.072 1.072 0 0 1 175.87.7ZM180.037-.31a1.072 1.072 0 1 1-2.083.506 1.072 1.072 0 0 1 2.083-.505ZM184.205-1.319a1.072 1.072 0 1 1-2.083.506 1.072 1.072 0 0 1 2.083-.506ZM188.373-2.329a1.072 1.072 0 1 1-2.083.506 1.072 1.072 0 0 1 2.083-.506ZM192.541-3.338a1.072 1.072 0 1 1-2.083.505 1.072 1.072 0 0 1 2.083-.505ZM196.709-4.348a1.072 1.072 0 1 1-2.083.506 1.072 1.072 0 0 1 2.083-.506ZM200.877-5.358a1.072 1.072 0 1 1-2.083.506 1.072 1.072 0 0 1 2.083-.506ZM205.045-6.367a1.072 1.072 0 1 1-2.083.506 1.072 1.072 0 0 1 2.083-.506ZM209.213-7.377a1.072 1.072 0 1 1-2.083.506 1.072 1.072 0 0 1 2.083-.506ZM213.381-8.387a1.072 1.072 0 1 1-2.083.506 1.072 1.072 0 0 1 2.083-.506ZM217.549-9.396a1.072 1.072 0 1 1-2.083.506 1.072 1.072 0 0 1 2.083-.506ZM221.717-10.406a1.072 1.072 0 1 1-2.083.506 1.072 1.072 0 0 1 2.083-.506ZM225.885-11.415a1.072 1.072 0 1 1-2.083.505 1.072 1.072 0 0 1 2.083-.505ZM230.053-12.425a1.072 1.072 0 1 1-2.083.506 1.072 1.072 0 0 1 2.083-.506ZM234.221-13.435a1.072 1.072 0 1 1-2.083.506 1.072 1.072 0 0 1 2.083-.506ZM238.389-14.444a1.072 1.072 0 1 1-2.083.505 1.072 1.072 0 0 1 2.083-.505ZM242.557-15.454a1.072 1.072 0 1 1-2.083.506 1.072 1.072 0 0 1 2.083-.506ZM161.346-4.607a1.072 1.072 0 1 1-2.084.505 1.072 1.072 0 0 1 2.084-.505ZM165.514-5.616a1.072 1.072 0 1 1-2.084.504 1.072 1.072 0 0 1 2.084-.504ZM169.682-6.626a1.072 1.072 0 1 1-2.084.504 1.072 1.072 0 0 1 2.084-.504ZM173.85-7.636a1.072 1.072 0 1 1-2.084.505 1.072 1.072 0 0 1 2.084-.505ZM178.018-8.645a1.072 1.072 0 1 1-2.084.504 1.072 1.072 0 0 1 2.084-.504ZM182.186-9.655a1.072 1.072 0 1 1-2.084.504 1.072 1.072 0 0 1 2.084-.504ZM186.354-10.665a1.072 1.072 0 1 1-2.084.505 1.072 1.072 0 0 1 2.084-.505ZM190.522-11.674a1.072 1.072 0 1 1-2.084.504 1.072 1.072 0 0 1 2.084-.504ZM194.69-12.684a1.072 1.072 0 1 1-2.084.504 1.072 1.072 0 0 1 2.084-.504ZM198.858-13.694a1.072 1.072 0 1 1-2.084.505 1.072 1.072 0 0 1 2.084-.505ZM203.026-14.703a1.072 1.072 0 1 1-2.085.504 1.072 1.072 0 0 1 2.085-.504ZM207.194-15.713a1.072 1.072 0 1 1-2.084.504 1.072 1.072 0 0 1 2.084-.504ZM211.362-16.723a1.072 1.072 0 1 1-2.084.505 1.072 1.072 0 0 1 2.084-.505ZM215.53-17.732a1.072 1.072 0 1 1-2.084.504 1.072 1.072 0 0 1 2.084-.504ZM219.698-18.742a1.072 1.072 0 1 1-2.084.505 1.072 1.072 0 0 1 2.084-.505ZM223.866-19.751a1.072 1.072 0 1 1-2.085.504 1.072 1.072 0 0 1 2.085-.504ZM228.034-20.761a1.072 1.072 0 1 1-2.084.504 1.072 1.072 0 0 1 2.084-.504ZM232.202-21.77a1.072 1.072 0 1 1-2.084.504 1.072 1.072 0 0 1 2.084-.505ZM236.37-22.78a1.072 1.072 0 1 1-2.084.504 1.072 1.072 0 0 1 2.084-.504ZM240.538-23.79a1.072 1.072 0 1 1-2.084.504 1.072 1.072 0 0 1 2.084-.504ZM160.336-8.775a1.072 1.072 0 1 1-2.083.506 1.072 1.072 0 0 1 2.083-.506ZM164.504-9.784a1.072 1.072 0 1 1-2.083.505 1.072 1.072 0 0 1 2.083-.505ZM168.672-10.794a1.072 1.072 0 1 1-2.083.506 1.072 1.072 0 0 1 2.083-.506ZM172.84-11.804a1.072 1.072 0 1 1-2.083.506 1.072 1.072 0 0 1 2.083-.506ZM177.008-12.813a1.072 1.072 0 1 1-2.083.505 1.072 1.072 0 0 1 2.083-.505ZM181.176-13.823a1.072 1.072 0 1 1-2.083.506 1.072 1.072 0 0 1 2.083-.506ZM185.344-14.833a1.072 1.072 0 1 1-2.083.506 1.072 1.072 0 0 1 2.083-.506ZM189.512-15.842a1.072 1.072 0 1 1-2.083.505 1.072 1.072 0 0 1 2.083-.505ZM193.68-16.852a1.072 1.072 0 1 1-2.083.506 1.072 1.072 0 0 1 2.083-.506ZM197.848-17.862a1.072 1.072 0 1 1-2.083.506 1.072 1.072 0 0 1 2.083-.506ZM202.016-18.871a1.072 1.072 0 1 1-2.083.506 1.072 1.072 0 0 1 2.083-.506ZM206.184-19.88a1.072 1.072 0 1 1-2.083.505 1.072 1.072 0 0 1 2.083-.506ZM210.352-20.89a1.072 1.072 0 1 1-2.083.505 1.072 1.072 0 0 1 2.083-.505ZM214.52-21.9a1.072 1.072 0 1 1-2.083.506 1.072 1.072 0 0 1 2.083-.506ZM218.688-22.91a1.072 1.072 0 1 1-2.083.506 1.072 1.072 0 0 1 2.083-.506ZM222.856-23.92a1.072 1.072 0 1 1-2.083.506 1.072 1.072 0 0 1 2.083-.505ZM227.024-24.93a1.072 1.072 0 1 1-2.083.507 1.072 1.072 0 0 1 2.083-.506ZM231.192-25.939a1.072 1.072 0 1 1-2.083.506 1.072 1.072 0 0 1 2.083-.506ZM235.36-26.948a1.072 1.072 0 1 1-2.083.505 1.072 1.072 0 0 1 2.083-.505ZM239.528-27.958a1.072 1.072 0 1 1-2.083.506 1.072 1.072 0 0 1 2.083-.506ZM166.394 16.233a1.072 1.072 0 1 1-2.083.506 1.072 1.072 0 0 1 2.083-.506ZM170.562 15.223a1.072 1.072 0 1 1-2.083.506 1.072 1.072 0 0 1 2.083-.505ZM174.73 14.214a1.072 1.072 0 1 1-2.083.506 1.072 1.072 0 0 1 2.083-.506ZM178.898 13.204a1.072 1.072 0 1 1-2.083.506 1.072 1.072 0 0 1 2.083-.506ZM183.066 12.195a1.072 1.072 0 1 1-2.083.505 1.072 1.072 0 0 1 2.083-.505ZM187.234 11.185a1.072 1.072 0 1 1-2.083.506 1.072 1.072 0 0 1 2.083-.506ZM191.402 10.175a1.072 1.072 0 1 1-2.083.506 1.072 1.072 0 0 1 2.083-.506ZM195.57 9.166a1.072 1.072 0 1 1-2.083.505 1.072 1.072 0 0 1 2.083-.505ZM199.738 8.156a1.072 1.072 0 1 1-2.083.506 1.072 1.072 0 0 1 2.083-.506ZM203.906 7.146a1.072 1.072 0 1 1-2.083.506 1.072 1.072 0 0 1 2.083-.506ZM208.074 6.137a1.072 1.072 0 1 1-2.083.506 1.072 1.072 0 0 1 2.083-.506ZM212.242 5.127a1.072 1.072 0 1 1-2.083.506 1.072 1.072 0 0 1 2.083-.506ZM216.41 4.117a1.072 1.072 0 1 1-2.083.506 1.072 1.072 0 0 1 2.083-.506ZM220.578 3.108a1.072 1.072 0 1 1-2.083.506 1.072 1.072 0 0 1 2.083-.506ZM224.746 2.098a1.072 1.072 0 1 1-2.083.506 1.072 1.072 0 0 1 2.083-.506ZM228.914 1.089a1.072 1.072 0 1 1-2.083.505 1.072 1.072 0 0 1 2.083-.505ZM233.082.079a1.072 1.072 0 1 1-2.083.506 1.072 1.072 0 0 1 2.083-.506ZM237.25-.93a1.072 1.072 0 1 1-2.083.505 1.072 1.072 0 0 1 2.083-.506ZM241.418-1.94a1.072 1.072 0 1 1-2.083.505 1.072 1.072 0 0 1 2.083-.505ZM245.586-2.95a1.072 1.072 0 1 1-2.083.506 1.072 1.072 0 0 1 2.083-.506ZM167.404 20.401a1.072 1.072 0 1 1-2.084.504 1.072 1.072 0 0 1 2.084-.504ZM171.572 19.392a1.072 1.072 0 1 1-2.084.504 1.072 1.072 0 0 1 2.084-.505ZM175.74 18.382a1.072 1.072 0 1 1-2.085.504 1.072 1.072 0 0 1 2.085-.504ZM179.908 17.372a1.072 1.072 0 1 1-2.084.505 1.072 1.072 0 0 1 2.084-.505ZM184.076 16.363a1.072 1.072 0 1 1-2.084.504 1.072 1.072 0 0 1 2.084-.504ZM188.244 15.353a1.072 1.072 0 1 1-2.084.504 1.072 1.072 0 0 1 2.084-.504ZM192.412 14.343a1.072 1.072 0 1 1-2.084.505 1.072 1.072 0 0 1 2.084-.505ZM196.58 13.334a1.072 1.072 0 1 1-2.085.504 1.072 1.072 0 0 1 2.085-.504ZM200.748 12.324a1.072 1.072 0 1 1-2.084.504 1.072 1.072 0 0 1 2.084-.504ZM204.916 11.314a1.072 1.072 0 1 1-2.084.505 1.072 1.072 0 0 1 2.084-.505ZM209.084 10.305a1.072 1.072 0 1 1-2.084.504 1.072 1.072 0 0 1 2.084-.504ZM213.252 9.295a1.072 1.072 0 1 1-2.084.504 1.072 1.072 0 0 1 2.084-.504ZM217.42 8.285a1.072 1.072 0 1 1-2.084.505 1.072 1.072 0 0 1 2.084-.505ZM221.588 7.276a1.072 1.072 0 1 1-2.084.504 1.072 1.072 0 0 1 2.084-.504ZM225.756 6.266a1.072 1.072 0 1 1-2.084.505 1.072 1.072 0 0 1 2.084-.505ZM229.924 5.257a1.072 1.072 0 1 1-2.084.504 1.072 1.072 0 0 1 2.084-.504ZM234.092 4.247a1.072 1.072 0 1 1-2.084.504 1.072 1.072 0 0 1 2.084-.504ZM238.26 3.237a1.072 1.072 0 1 1-2.084.505 1.072 1.072 0 0 1 2.084-.505ZM242.428 2.228a1.072 1.072 0 1 1-2.084.504 1.072 1.072 0 0 1 2.084-.504ZM246.596 1.218a1.072 1.072 0 1 1-2.084.504 1.072 1.072 0 0 1 2.084-.504ZM165.385 12.065a1.072 1.072 0 1 1-2.085.505 1.072 1.072 0 0 1 2.085-.505ZM169.553 11.056a1.073 1.073 0 1 1-2.086.503 1.073 1.073 0 0 1 2.086-.503ZM173.721 10.046a1.073 1.073 0 1 1-2.086.503 1.073 1.073 0 0 1 2.086-.503ZM177.889 9.036a1.073 1.073 0 1 1-2.086.503 1.073 1.073 0 0 1 2.086-.503ZM182.057 8.027a1.073 1.073 0 1 1-2.086.503 1.073 1.073 0 0 1 2.086-.503ZM186.225 7.017a1.073 1.073 0 1 1-2.086.503 1.073 1.073 0 0 1 2.086-.503ZM190.393 6.007a1.073 1.073 0 1 1-2.086.504 1.073 1.073 0 0 1 2.086-.504ZM194.561 4.998a1.073 1.073 0 1 1-2.086.503 1.073 1.073 0 0 1 2.086-.503ZM198.729 3.988a1.073 1.073 0 1 1-2.086.503 1.073 1.073 0 0 1 2.086-.503ZM202.897 2.978a1.073 1.073 0 1 1-2.086.504 1.073 1.073 0 0 1 2.086-.504ZM207.065 1.969a1.073 1.073 0 1 1-2.086.503 1.073 1.073 0 0 1 2.086-.503ZM211.233.96a1.073 1.073 0 1 1-2.086.502 1.073 1.073 0 0 1 2.086-.503ZM215.401-.05a1.073 1.073 0 1 1-2.086.503 1.073 1.073 0 0 1 2.086-.504ZM219.569-1.06a1.073 1.073 0 1 1-2.086.503 1.073 1.073 0 0 1 2.086-.503ZM223.737-2.07a1.073 1.073 0 1 1-2.086.503 1.073 1.073 0 0 1 2.086-.503ZM227.905-3.08a1.073 1.073 0 1 1-2.086.504 1.073 1.073 0 0 1 2.086-.503ZM232.073-4.09a1.073 1.073 0 1 1-2.086.504 1.073 1.073 0 0 1 2.086-.503ZM236.241-5.099a1.073 1.073 0 1 1-2.086.503 1.073 1.073 0 0 1 2.086-.503ZM240.409-6.108a1.073 1.073 0 1 1-2.086.503 1.073 1.073 0 0 1 2.086-.503ZM244.577-7.118a1.073 1.073 0 1 1-2.086.503 1.073 1.073 0 0 1 2.086-.503ZM164.375 7.897a1.072 1.072 0 1 1-2.084.505 1.072 1.072 0 0 1 2.084-.505ZM168.543 6.888a1.072 1.072 0 1 1-2.084.504 1.072 1.072 0 0 1 2.084-.504ZM172.711 5.878a1.072 1.072 0 1 1-2.084.504 1.072 1.072 0 0 1 2.084-.504ZM176.879 4.868a1.072 1.072 0 1 1-2.084.505 1.072 1.072 0 0 1 2.084-.505ZM181.047 3.859a1.072 1.072 0 1 1-2.084.504 1.072 1.072 0 0 1 2.084-.504ZM185.215 2.849a1.072 1.072 0 1 1-2.084.504 1.072 1.072 0 0 1 2.084-.504ZM189.383 1.84a1.072 1.072 0 1 1-2.084.504 1.072 1.072 0 0 1 2.084-.505ZM193.551.83a1.072 1.072 0 1 1-2.084.504A1.072 1.072 0 0 1 193.55.83ZM197.719-.18a1.072 1.072 0 1 1-2.084.504 1.072 1.072 0 0 1 2.084-.504ZM201.887-1.19a1.072 1.072 0 1 1-2.084.505 1.072 1.072 0 0 1 2.084-.505ZM206.055-2.2a1.072 1.072 0 1 1-2.084.505 1.072 1.072 0 0 1 2.084-.504ZM210.223-3.209a1.072 1.072 0 1 1-2.084.504 1.072 1.072 0 0 1 2.084-.504ZM214.391-4.219a1.072 1.072 0 1 1-2.084.505 1.072 1.072 0 0 1 2.084-.505ZM218.559-5.228a1.072 1.072 0 1 1-2.084.504 1.072 1.072 0 0 1 2.084-.504ZM222.727-6.238a1.072 1.072 0 1 1-2.084.505 1.072 1.072 0 0 1 2.084-.505ZM226.895-7.247a1.072 1.072 0 1 1-2.084.504 1.072 1.072 0 0 1 2.084-.504ZM231.063-8.257a1.072 1.072 0 1 1-2.084.504 1.072 1.072 0 0 1 2.084-.504ZM235.231-9.267a1.072 1.072 0 1 1-2.084.505 1.072 1.072 0 0 1 2.084-.505ZM239.399-10.276a1.072 1.072 0 1 1-2.084.504 1.072 1.072 0 0 1 2.084-.504ZM243.567-11.286a1.072 1.072 0 1 1-2.084.504 1.072 1.072 0 0 1 2.084-.504ZM170.433 32.905a1.072 1.072 0 1 1-2.084.504 1.072 1.072 0 0 1 2.084-.504ZM174.601 31.895a1.072 1.072 0 1 1-2.084.505 1.072 1.072 0 0 1 2.084-.505ZM178.769 30.886a1.072 1.072 0 1 1-2.085.504 1.072 1.072 0 0 1 2.085-.504ZM182.937 29.876a1.072 1.072 0 1 1-2.084.505 1.072 1.072 0 0 1 2.084-.505ZM187.105 28.867a1.072 1.072 0 1 1-2.085.504 1.072 1.072 0 0 1 2.085-.504ZM191.273 27.857a1.072 1.072 0 1 1-2.084.504 1.072 1.072 0 0 1 2.084-.504ZM195.441 26.847a1.072 1.072 0 1 1-2.084.505 1.072 1.072 0 0 1 2.084-.505ZM199.609 25.838a1.072 1.072 0 1 1-2.084.504 1.072 1.072 0 0 1 2.084-.504ZM203.777 24.828a1.072 1.072 0 1 1-2.084.504 1.072 1.072 0 0 1 2.084-.504ZM207.945 23.818a1.072 1.072 0 1 1-2.085.505 1.072 1.072 0 0 1 2.085-.505ZM212.113 22.809a1.072 1.072 0 1 1-2.084.504 1.072 1.072 0 0 1 2.084-.504ZM216.281 21.8a1.072 1.072 0 1 1-2.084.503 1.072 1.072 0 0 1 2.084-.504ZM220.449 20.79a1.072 1.072 0 1 1-2.084.504 1.072 1.072 0 0 1 2.084-.505ZM224.617 19.78a1.072 1.072 0 1 1-2.084.504 1.072 1.072 0 0 1 2.084-.504ZM228.785 18.77a1.072 1.072 0 1 1-2.085.505 1.072 1.072 0 0 1 2.085-.505ZM232.953 17.76a1.072 1.072 0 1 1-2.084.505 1.072 1.072 0 0 1 2.084-.505ZM237.121 16.75a1.072 1.072 0 1 1-2.084.505 1.072 1.072 0 0 1 2.084-.504ZM241.289 15.741a1.072 1.072 0 1 1-2.084.505 1.072 1.072 0 0 1 2.084-.505ZM245.457 14.732a1.072 1.072 0 1 1-2.084.504 1.072 1.072 0 0 1 2.084-.504ZM249.625 13.722a1.072 1.072 0 1 1-2.085.504 1.072 1.072 0 0 1 2.085-.504ZM171.442 37.073a1.072 1.072 0 1 1-2.083.506 1.072 1.072 0 0 1 2.083-.506ZM175.61 36.063a1.072 1.072 0 1 1-2.083.506 1.072 1.072 0 0 1 2.083-.506ZM179.778 35.054a1.072 1.072 0 1 1-2.083.506 1.072 1.072 0 0 1 2.083-.506ZM183.946 34.044a1.072 1.072 0 1 1-2.083.506 1.072 1.072 0 0 1 2.083-.506ZM188.114 33.035a1.072 1.072 0 1 1-2.083.505 1.072 1.072 0 0 1 2.083-.505ZM192.282 32.025a1.072 1.072 0 1 1-2.083.506 1.072 1.072 0 0 1 2.083-.506ZM196.45 31.015a1.072 1.072 0 1 1-2.083.506 1.072 1.072 0 0 1 2.083-.506ZM200.618 30.006a1.072 1.072 0 1 1-2.083.505 1.072 1.072 0 0 1 2.083-.505ZM204.786 28.996a1.072 1.072 0 1 1-2.083.506 1.072 1.072 0 0 1 2.083-.506ZM208.954 27.986a1.072 1.072 0 1 1-2.083.506 1.072 1.072 0 0 1 2.083-.506ZM213.122 26.977a1.072 1.072 0 1 1-2.083.505 1.072 1.072 0 0 1 2.083-.505ZM217.29 25.967a1.072 1.072 0 1 1-2.083.506 1.072 1.072 0 0 1 2.083-.506ZM221.458 24.957a1.072 1.072 0 1 1-2.083.506 1.072 1.072 0 0 1 2.083-.506ZM225.626 23.948a1.072 1.072 0 1 1-2.083.506 1.072 1.072 0 0 1 2.083-.506ZM229.794 22.938a1.072 1.072 0 1 1-2.083.506 1.072 1.072 0 0 1 2.083-.506ZM233.962 21.928a1.072 1.072 0 1 1-2.083.506 1.072 1.072 0 0 1 2.083-.506ZM238.13 20.919a1.072 1.072 0 1 1-2.083.506 1.072 1.072 0 0 1 2.083-.506ZM242.298 19.91a1.072 1.072 0 1 1-2.083.505 1.072 1.072 0 0 1 2.083-.506ZM246.466 18.9a1.072 1.072 0 1 1-2.083.505 1.072 1.072 0 0 1 2.083-.505ZM250.634 17.89a1.072 1.072 0 1 1-2.083.506 1.072 1.072 0 0 1 2.083-.506ZM169.423 28.737a1.072 1.072 0 1 1-2.083.506 1.072 1.072 0 0 1 2.083-.506ZM173.591 27.727a1.072 1.072 0 1 1-2.083.506 1.072 1.072 0 0 1 2.083-.506ZM177.759 26.718a1.072 1.072 0 1 1-2.083.506 1.072 1.072 0 0 1 2.083-.506ZM181.927 25.708a1.072 1.072 0 1 1-2.083.506 1.072 1.072 0 0 1 2.083-.506ZM186.095 24.699a1.072 1.072 0 1 1-2.083.505 1.072 1.072 0 0 1 2.083-.505ZM190.263 23.689a1.072 1.072 0 1 1-2.083.506 1.072 1.072 0 0 1 2.083-.506ZM194.431 22.68a1.072 1.072 0 1 1-2.083.505 1.072 1.072 0 0 1 2.083-.506ZM198.599 21.67a1.072 1.072 0 1 1-2.083.505 1.072 1.072 0 0 1 2.083-.505ZM202.767 20.66a1.072 1.072 0 1 1-2.083.506 1.072 1.072 0 0 1 2.083-.506ZM206.935 19.65a1.072 1.072 0 1 1-2.083.506 1.072 1.072 0 0 1 2.083-.506ZM211.103 18.64a1.072 1.072 0 1 1-2.083.506 1.072 1.072 0 0 1 2.083-.505ZM215.271 17.631a1.072 1.072 0 1 1-2.083.506 1.072 1.072 0 0 1 2.083-.506ZM219.439 16.621a1.072 1.072 0 1 1-2.083.506 1.072 1.072 0 0 1 2.083-.506ZM223.607 15.612a1.072 1.072 0 1 1-2.083.506 1.072 1.072 0 0 1 2.083-.506ZM227.775 14.602a1.072 1.072 0 1 1-2.083.506 1.072 1.072 0 0 1 2.083-.506ZM231.943 13.592a1.072 1.072 0 1 1-2.083.506 1.072 1.072 0 0 1 2.083-.506ZM236.111 12.583a1.072 1.072 0 1 1-2.083.506 1.072 1.072 0 0 1 2.083-.506ZM240.279 11.573a1.072 1.072 0 1 1-2.083.506 1.072 1.072 0 0 1 2.083-.506ZM244.447 10.564a1.072 1.072 0 1 1-2.083.505 1.072 1.072 0 0 1 2.083-.505ZM248.615 9.554a1.072 1.072 0 1 1-2.085.505 1.072 1.072 0 0 1 2.085-.505ZM168.414 24.57a1.073 1.073 0 1 1-2.086.502 1.073 1.073 0 0 1 2.086-.503ZM172.582 23.56a1.073 1.073 0 1 1-2.086.503 1.073 1.073 0 0 1 2.086-.503ZM176.75 22.55a1.073 1.073 0 1 1-2.086.503 1.073 1.073 0 0 1 2.086-.503ZM180.918 21.54a1.073 1.073 0 1 1-2.086.503 1.073 1.073 0 0 1 2.086-.503ZM185.086 20.53a1.073 1.073 0 1 1-2.086.504 1.073 1.073 0 0 1 2.086-.503ZM189.254 19.52a1.073 1.073 0 1 1-2.086.504 1.073 1.073 0 0 1 2.086-.503ZM193.422 18.511a1.073 1.073 0 1 1-2.086.504 1.073 1.073 0 0 1 2.086-.504ZM197.59 17.502a1.073 1.073 0 1 1-2.086.503 1.073 1.073 0 0 1 2.086-.503ZM201.758 16.492a1.073 1.073 0 1 1-2.086.503 1.073 1.073 0 0 1 2.086-.503ZM205.925 15.482a1.072 1.072 0 1 1-2.083.506 1.072 1.072 0 0 1 2.083-.506ZM210.093 14.473a1.072 1.072 0 1 1-2.083.505 1.072 1.072 0 0 1 2.083-.505ZM214.261 13.463a1.072 1.072 0 1 1-2.083.506 1.072 1.072 0 0 1 2.083-.506ZM218.429 12.453a1.072 1.072 0 1 1-2.083.506 1.072 1.072 0 0 1 2.083-.506ZM222.597 11.444a1.072 1.072 0 1 1-2.083.506 1.072 1.072 0 0 1 2.083-.506ZM226.765 10.434a1.072 1.072 0 1 1-2.083.506 1.072 1.072 0 0 1 2.083-.506ZM230.933 9.425a1.072 1.072 0 1 1-2.083.505 1.072 1.072 0 0 1 2.083-.505ZM235.101 8.415a1.072 1.072 0 1 1-2.083.506 1.072 1.072 0 0 1 2.083-.506ZM239.269 7.405a1.072 1.072 0 1 1-2.083.506 1.072 1.072 0 0 1 2.083-.506ZM243.437 6.396a1.072 1.072 0 1 1-2.083.505 1.072 1.072 0 0 1 2.083-.505ZM247.605 5.386a1.072 1.072 0 1 1-2.083.506 1.072 1.072 0 0 1 2.083-.506ZM174.471 49.577a1.072 1.072 0 1 1-2.083.506 1.072 1.072 0 0 1 2.083-.506ZM178.639 48.568a1.072 1.072 0 1 1-2.083.505 1.072 1.072 0 0 1 2.083-.505ZM182.807 47.558a1.072 1.072 0 1 1-2.083.506 1.072 1.072 0 0 1 2.083-.506ZM186.975 46.548a1.072 1.072 0 1 1-2.083.506 1.072 1.072 0 0 1 2.083-.506ZM191.143 45.538a1.072 1.072 0 1 1-2.083.506 1.072 1.072 0 0 1 2.083-.505ZM195.311 44.529a1.072 1.072 0 1 1-2.083.506 1.072 1.072 0 0 1 2.083-.506ZM199.479 43.52a1.072 1.072 0 1 1-2.083.505 1.072 1.072 0 0 1 2.083-.506ZM203.647 42.51a1.072 1.072 0 1 1-2.083.505 1.072 1.072 0 0 1 2.083-.505ZM207.815 41.5a1.072 1.072 0 1 1-2.083.506 1.072 1.072 0 0 1 2.083-.506ZM211.983 40.49a1.072 1.072 0 1 1-2.083.506 1.072 1.072 0 0 1 2.083-.506ZM216.151 39.48a1.072 1.072 0 1 1-2.083.506 1.072 1.072 0 0 1 2.083-.505ZM220.319 38.471a1.072 1.072 0 1 1-2.083.506 1.072 1.072 0 0 1 2.083-.506ZM224.487 37.461a1.072 1.072 0 1 1-2.083.506 1.072 1.072 0 0 1 2.083-.506ZM228.655 36.452a1.072 1.072 0 1 1-2.083.506 1.072 1.072 0 0 1 2.083-.506ZM232.823 35.442a1.072 1.072 0 1 1-2.083.506 1.072 1.072 0 0 1 2.083-.506ZM236.991 34.432a1.072 1.072 0 1 1-2.083.506 1.072 1.072 0 0 1 2.083-.506ZM241.159 33.423a1.072 1.072 0 1 1-2.083.506 1.072 1.072 0 0 1 2.083-.506ZM245.327 32.413a1.072 1.072 0 1 1-2.083.506 1.072 1.072 0 0 1 2.083-.506ZM249.495 31.404a1.072 1.072 0 1 1-2.083.505 1.072 1.072 0 0 1 2.083-.505ZM253.663 30.394a1.072 1.072 0 1 1-2.083.506 1.072 1.072 0 0 1 2.083-.506ZM175.481 53.745a1.072 1.072 0 1 1-2.084.504 1.072 1.072 0 0 1 2.084-.504ZM179.649 52.736a1.072 1.072 0 1 1-2.085.504 1.072 1.072 0 0 1 2.085-.505ZM183.817 51.726a1.072 1.072 0 1 1-2.084.504 1.072 1.072 0 0 1 2.084-.504ZM187.985 50.716a1.072 1.072 0 1 1-2.084.505 1.072 1.072 0 0 1 2.084-.505ZM192.153 49.706a1.072 1.072 0 1 1-2.085.505 1.072 1.072 0 0 1 2.085-.505ZM196.321 48.697a1.072 1.072 0 1 1-2.084.504 1.072 1.072 0 0 1 2.084-.504ZM200.489 47.687a1.072 1.072 0 1 1-2.085.505 1.072 1.072 0 0 1 2.085-.505ZM204.657 46.678a1.072 1.072 0 1 1-2.084.504 1.072 1.072 0 0 1 2.084-.504ZM208.825 45.668a1.072 1.072 0 1 1-2.084.504 1.072 1.072 0 0 1 2.084-.504ZM212.993 44.658a1.072 1.072 0 1 1-2.084.505 1.072 1.072 0 0 1 2.084-.505ZM217.161 43.649a1.072 1.072 0 1 1-2.084.504 1.072 1.072 0 0 1 2.084-.504ZM221.329 42.64a1.072 1.072 0 1 1-2.085.503 1.072 1.072 0 0 1 2.085-.504ZM225.497 41.63a1.072 1.072 0 1 1-2.084.504 1.072 1.072 0 0 1 2.084-.505ZM229.665 40.62a1.072 1.072 0 1 1-2.084.504 1.072 1.072 0 0 1 2.084-.504ZM233.833 39.61a1.072 1.072 0 1 1-2.084.504 1.072 1.072 0 0 1 2.084-.504ZM238.001 38.6a1.072 1.072 0 1 1-2.084.505A1.072 1.072 0 0 1 238 38.6ZM242.169 37.59a1.072 1.072 0 1 1-2.085.505 1.072 1.072 0 0 1 2.085-.504ZM246.337 36.581a1.072 1.072 0 1 1-2.084.505 1.072 1.072 0 0 1 2.084-.505ZM250.505 35.572a1.072 1.072 0 1 1-2.084.504 1.072 1.072 0 0 1 2.084-.504ZM254.673 34.562a1.072 1.072 0 1 1-2.084.504 1.072 1.072 0 0 1 2.084-.504ZM176.491 57.913a1.072 1.072 0 1 1-2.084.504 1.072 1.072 0 0 1 2.084-.504ZM180.659 56.904a1.072 1.072 0 1 1-2.085.504 1.072 1.072 0 0 1 2.085-.505ZM184.827 55.894a1.072 1.072 0 1 1-2.084.504 1.072 1.072 0 0 1 2.084-.504ZM188.995 54.884a1.072 1.072 0 1 1-2.084.505 1.072 1.072 0 0 1 2.084-.505ZM193.163 53.874a1.072 1.072 0 1 1-2.084.505 1.072 1.072 0 0 1 2.084-.505ZM197.331 52.865a1.072 1.072 0 1 1-2.084.504 1.072 1.072 0 0 1 2.084-.504ZM201.499 51.855a1.072 1.072 0 1 1-2.085.505 1.072 1.072 0 0 1 2.085-.505ZM205.667 50.846a1.072 1.072 0 1 1-2.084.504 1.072 1.072 0 0 1 2.084-.504ZM209.835 49.836a1.072 1.072 0 1 1-2.084.504 1.072 1.072 0 0 1 2.084-.504ZM214.003 48.826a1.072 1.072 0 1 1-2.084.505 1.072 1.072 0 0 1 2.084-.505ZM218.171 47.817a1.072 1.072 0 1 1-2.084.504 1.072 1.072 0 0 1 2.084-.504ZM222.339 46.807a1.072 1.072 0 1 1-2.085.504 1.072 1.072 0 0 1 2.085-.504ZM226.507 45.797a1.073 1.073 0 1 1-2.086.504 1.073 1.073 0 0 1 2.086-.504ZM230.675 44.788a1.073 1.073 0 1 1-2.086.503 1.073 1.073 0 0 1 2.086-.503ZM234.843 43.778a1.073 1.073 0 1 1-2.086.503 1.073 1.073 0 0 1 2.086-.503ZM239.011 42.769a1.073 1.073 0 1 1-2.086.503 1.073 1.073 0 0 1 2.086-.503ZM243.179 41.759a1.073 1.073 0 1 1-2.086.503 1.073 1.073 0 0 1 2.086-.503ZM247.347 40.75a1.073 1.073 0 1 1-2.086.502 1.073 1.073 0 0 1 2.086-.503ZM251.515 39.74a1.073 1.073 0 1 1-2.086.503 1.073 1.073 0 0 1 2.086-.503ZM255.683 38.73a1.073 1.073 0 1 1-2.086.503 1.073 1.073 0 0 1 2.086-.503ZM177.5 62.081a1.072 1.072 0 1 1-2.083.506 1.072 1.072 0 0 1 2.083-.506ZM181.668 61.072a1.072 1.072 0 1 1-2.083.505 1.072 1.072 0 0 1 2.083-.505ZM185.836 60.062a1.072 1.072 0 1 1-2.083.506 1.072 1.072 0 0 1 2.083-.506ZM190.004 59.052a1.072 1.072 0 1 1-2.083.506 1.072 1.072 0 0 1 2.083-.506ZM194.172 58.042a1.072 1.072 0 1 1-2.083.506 1.072 1.072 0 0 1 2.083-.506ZM198.34 57.033a1.072 1.072 0 1 1-2.083.506 1.072 1.072 0 0 1 2.083-.506ZM202.508 56.023a1.072 1.072 0 1 1-2.083.506 1.072 1.072 0 0 1 2.083-.506ZM206.676 55.014a1.072 1.072 0 1 1-2.083.505 1.072 1.072 0 0 1 2.083-.505ZM210.844 54.004a1.072 1.072 0 1 1-2.083.506 1.072 1.072 0 0 1 2.083-.506ZM215.012 52.994a1.072 1.072 0 1 1-2.083.506 1.072 1.072 0 0 1 2.083-.506ZM219.18 51.985a1.072 1.072 0 1 1-2.083.505 1.072 1.072 0 0 1 2.083-.505ZM223.348 50.975a1.072 1.072 0 1 1-2.083.506 1.072 1.072 0 0 1 2.083-.506ZM227.516 49.965a1.072 1.072 0 1 1-2.083.506 1.072 1.072 0 0 1 2.083-.506ZM231.684 48.956a1.072 1.072 0 1 1-2.083.506 1.072 1.072 0 0 1 2.083-.506ZM235.852 47.946a1.072 1.072 0 1 1-2.083.506 1.072 1.072 0 0 1 2.083-.506ZM240.02 46.937a1.072 1.072 0 1 1-2.083.505 1.072 1.072 0 0 1 2.083-.505ZM244.188 45.927a1.072 1.072 0 1 1-2.083.506 1.072 1.072 0 0 1 2.083-.506ZM248.356 44.917a1.072 1.072 0 1 1-2.083.506 1.072 1.072 0 0 1 2.083-.506ZM252.524 43.908a1.072 1.072 0 1 1-2.083.505 1.072 1.072 0 0 1 2.083-.505ZM256.692 42.898a1.072 1.072 0 1 1-2.083.506 1.072 1.072 0 0 1 2.083-.506ZM178.51 66.25a1.072 1.072 0 1 1-2.084.503 1.072 1.072 0 0 1 2.084-.504ZM182.678 65.24a1.072 1.072 0 1 1-2.085.504 1.072 1.072 0 0 1 2.085-.504ZM186.846 64.23a1.072 1.072 0 1 1-2.084.504 1.072 1.072 0 0 1 2.084-.504ZM191.014 63.22a1.072 1.072 0 1 1-2.084.505 1.072 1.072 0 0 1 2.084-.505ZM195.182 62.21a1.072 1.072 0 1 1-2.084.505 1.072 1.072 0 0 1 2.084-.505ZM199.35 61.2a1.072 1.072 0 1 1-2.084.505 1.072 1.072 0 0 1 2.084-.504ZM203.518 60.191a1.072 1.072 0 1 1-2.085.505 1.072 1.072 0 0 1 2.085-.505ZM207.686 59.182a1.072 1.072 0 1 1-2.084.504 1.072 1.072 0 0 1 2.084-.504ZM211.854 58.172a1.072 1.072 0 1 1-2.085.504 1.072 1.072 0 0 1 2.085-.504ZM216.022 57.162a1.072 1.072 0 1 1-2.084.505 1.072 1.072 0 0 1 2.084-.505ZM220.19 56.153a1.072 1.072 0 1 1-2.084.504 1.072 1.072 0 0 1 2.084-.504ZM224.358 55.143a1.072 1.072 0 1 1-2.085.504 1.072 1.072 0 0 1 2.085-.504ZM228.526 54.133a1.072 1.072 0 1 1-2.084.505 1.072 1.072 0 0 1 2.084-.505ZM232.694 53.124a1.072 1.072 0 1 1-2.085.504 1.072 1.072 0 0 1 2.085-.504ZM236.862 52.114a1.072 1.072 0 1 1-2.084.504 1.072 1.072 0 0 1 2.084-.504ZM241.03 51.105a1.072 1.072 0 1 1-2.084.504 1.072 1.072 0 0 1 2.084-.505ZM245.198 50.095a1.072 1.072 0 1 1-2.085.504 1.072 1.072 0 0 1 2.085-.504ZM249.366 49.085a1.072 1.072 0 1 1-2.084.505 1.072 1.072 0 0 1 2.084-.505ZM253.534 48.076a1.072 1.072 0 1 1-2.085.504 1.072 1.072 0 0 1 2.085-.504ZM257.702 47.066a1.072 1.072 0 1 1-2.084.504 1.072 1.072 0 0 1 2.084-.504ZM179.52 70.417a1.073 1.073 0 1 1-2.086.503 1.073 1.073 0 0 1 2.086-.503ZM183.688 69.407a1.073 1.073 0 1 1-2.086.504 1.073 1.073 0 0 1 2.086-.504ZM187.856 68.398a1.073 1.073 0 1 1-2.086.503 1.073 1.073 0 0 1 2.086-.503ZM192.024 67.388a1.073 1.073 0 1 1-2.086.503 1.073 1.073 0 0 1 2.086-.503ZM196.192 66.379a1.073 1.073 0 1 1-2.086.503 1.073 1.073 0 0 1 2.086-.504ZM200.36 65.369a1.073 1.073 0 1 1-2.086.503 1.073 1.073 0 0 1 2.086-.503ZM204.528 64.36a1.073 1.073 0 1 1-2.086.502 1.073 1.073 0 0 1 2.086-.503ZM208.696 63.35a1.073 1.073 0 1 1-2.086.503 1.073 1.073 0 0 1 2.086-.503ZM212.864 62.34a1.073 1.073 0 1 1-2.086.503 1.073 1.073 0 0 1 2.086-.503ZM217.032 61.33a1.073 1.073 0 1 1-2.086.504 1.073 1.073 0 0 1 2.086-.504ZM221.2 60.32a1.073 1.073 0 1 1-2.086.504 1.073 1.073 0 0 1 2.086-.503ZM225.368 59.311a1.073 1.073 0 1 1-2.086.503 1.073 1.073 0 0 1 2.086-.503ZM229.536 58.301a1.073 1.073 0 1 1-2.086.504 1.073 1.073 0 0 1 2.086-.504ZM233.704 57.292a1.073 1.073 0 1 1-2.086.503 1.073 1.073 0 0 1 2.086-.503ZM237.872 56.282a1.073 1.073 0 1 1-2.086.503 1.073 1.073 0 0 1 2.086-.503ZM242.04 55.273a1.073 1.073 0 1 1-2.086.503 1.073 1.073 0 0 1 2.086-.504ZM246.208 54.263a1.073 1.073 0 1 1-2.086.503 1.073 1.073 0 0 1 2.086-.503ZM250.376 53.253a1.073 1.073 0 1 1-2.086.503 1.073 1.073 0 0 1 2.086-.503ZM254.544 52.244a1.073 1.073 0 1 1-2.086.503 1.073 1.073 0 0 1 2.086-.503ZM258.712 51.234a1.073 1.073 0 1 1-2.086.503 1.073 1.073 0 0 1 2.086-.503ZM173.462 45.41a1.072 1.072 0 1 1-2.084.503 1.072 1.072 0 0 1 2.084-.504ZM177.63 44.4a1.072 1.072 0 1 1-2.084.504 1.072 1.072 0 0 1 2.084-.505ZM181.798 43.39a1.072 1.072 0 1 1-2.084.504 1.072 1.072 0 0 1 2.084-.504ZM185.966 42.38a1.072 1.072 0 1 1-2.084.505 1.072 1.072 0 0 1 2.084-.505ZM190.134 41.37a1.072 1.072 0 1 1-2.085.505 1.072 1.072 0 0 1 2.085-.505ZM194.302 40.36a1.072 1.072 0 1 1-2.084.505 1.072 1.072 0 0 1 2.084-.504ZM198.47 39.351a1.072 1.072 0 1 1-2.085.505 1.072 1.072 0 0 1 2.085-.505ZM202.638 38.342a1.072 1.072 0 1 1-2.084.504 1.072 1.072 0 0 1 2.084-.504ZM206.806 37.332a1.072 1.072 0 1 1-2.084.504 1.072 1.072 0 0 1 2.084-.504ZM210.974 36.322a1.072 1.072 0 1 1-2.085.505 1.072 1.072 0 0 1 2.085-.505ZM215.142 35.313a1.072 1.072 0 1 1-2.084.504 1.072 1.072 0 0 1 2.084-.504ZM219.31 34.303a1.072 1.072 0 1 1-2.085.504 1.072 1.072 0 0 1 2.085-.504ZM223.478 33.293a1.072 1.072 0 1 1-2.084.505 1.072 1.072 0 0 1 2.084-.505ZM227.646 32.284a1.072 1.072 0 1 1-2.084.504 1.072 1.072 0 0 1 2.084-.504ZM231.814 31.274a1.072 1.072 0 1 1-2.085.504 1.072 1.072 0 0 1 2.085-.504ZM235.982 30.265a1.072 1.072 0 1 1-2.084.504 1.072 1.072 0 0 1 2.084-.504ZM240.15 29.255a1.072 1.072 0 1 1-2.085.504 1.072 1.072 0 0 1 2.085-.504ZM244.318 28.245a1.072 1.072 0 1 1-2.084.505 1.072 1.072 0 0 1 2.084-.505ZM248.486 27.236a1.072 1.072 0 1 1-2.084.504 1.072 1.072 0 0 1 2.084-.504ZM252.654 26.226a1.072 1.072 0 1 1-2.084.504 1.072 1.072 0 0 1 2.084-.504ZM172.452 41.241a1.072 1.072 0 1 1-2.085.505 1.072 1.072 0 0 1 2.085-.505ZM176.62 40.231a1.072 1.072 0 1 1-2.085.505 1.072 1.072 0 0 1 2.085-.505ZM180.788 39.222a1.072 1.072 0 1 1-2.084.504 1.072 1.072 0 0 1 2.084-.504ZM184.956 38.212a1.072 1.072 0 1 1-2.084.505 1.072 1.072 0 0 1 2.084-.505ZM189.124 37.203a1.072 1.072 0 1 1-2.085.504 1.072 1.072 0 0 1 2.085-.504ZM193.292 36.193a1.072 1.072 0 1 1-2.084.504 1.072 1.072 0 0 1 2.084-.504ZM197.46 35.183a1.072 1.072 0 1 1-2.084.505 1.072 1.072 0 0 1 2.084-.505ZM201.628 34.174a1.072 1.072 0 1 1-2.084.504 1.072 1.072 0 0 1 2.084-.504ZM205.796 33.164a1.072 1.072 0 1 1-2.084.504 1.072 1.072 0 0 1 2.084-.504ZM209.964 32.154a1.072 1.072 0 1 1-2.085.505 1.072 1.072 0 0 1 2.085-.505ZM214.132 31.145a1.072 1.072 0 1 1-2.084.504 1.072 1.072 0 0 1 2.084-.504ZM218.3 30.135a1.072 1.072 0 1 1-2.085.504 1.072 1.072 0 0 1 2.085-.504ZM222.468 29.125a1.072 1.072 0 1 1-2.084.505 1.072 1.072 0 0 1 2.084-.505ZM226.636 28.116a1.072 1.072 0 1 1-2.084.504 1.072 1.072 0 0 1 2.084-.504ZM230.804 27.106a1.072 1.072 0 1 1-2.085.505 1.072 1.072 0 0 1 2.085-.505ZM234.972 26.096a1.072 1.072 0 1 1-2.084.505 1.072 1.072 0 0 1 2.084-.505ZM239.14 25.087a1.072 1.072 0 1 1-2.085.504 1.072 1.072 0 0 1 2.085-.504ZM243.308 24.077a1.072 1.072 0 1 1-2.084.505 1.072 1.072 0 0 1 2.084-.505ZM247.476 23.068a1.072 1.072 0 1 1-2.084.504 1.072 1.072 0 0 1 2.084-.504ZM251.644 22.058a1.072 1.072 0 1 1-2.085.504 1.072 1.072 0 0 1 2.085-.504ZM79.356 19.561a1.072 1.072 0 1 1-2.084.505 1.072 1.072 0 0 1 2.084-.505ZM83.524 18.552a1.072 1.072 0 1 1-2.084.504 1.072 1.072 0 0 1 2.084-.505ZM87.692 17.542a1.072 1.072 0 1 1-2.084.505 1.072 1.072 0 0 1 2.084-.505ZM91.86 16.532a1.072 1.072 0 1 1-2.084.505 1.072 1.072 0 0 1 2.084-.505ZM96.028 15.523a1.072 1.072 0 1 1-2.084.504 1.072 1.072 0 0 1 2.084-.504ZM100.196 14.513a1.073 1.073 0 1 1-2.085.504 1.073 1.073 0 0 1 2.085-.504ZM104.364 13.503a1.072 1.072 0 1 1-2.084.505 1.072 1.072 0 0 1 2.084-.505ZM108.532 12.494a1.072 1.072 0 1 1-2.084.504 1.072 1.072 0 0 1 2.084-.504ZM112.7 11.484a1.072 1.072 0 1 1-2.084.504 1.072 1.072 0 0 1 2.084-.504ZM116.868 10.474a1.072 1.072 0 1 1-2.084.505 1.072 1.072 0 0 1 2.084-.505ZM121.036 9.465a1.072 1.072 0 1 1-2.085.504 1.072 1.072 0 0 1 2.085-.504ZM125.204 8.455a1.072 1.072 0 1 1-2.084.504 1.072 1.072 0 0 1 2.084-.504ZM129.372 7.445a1.072 1.072 0 1 1-2.084.505 1.072 1.072 0 0 1 2.084-.505ZM133.54 6.436a1.072 1.072 0 1 1-2.084.504 1.072 1.072 0 0 1 2.084-.504ZM137.708 5.426a1.072 1.072 0 1 1-2.084.505 1.072 1.072 0 0 1 2.084-.505ZM141.876 4.417a1.072 1.072 0 1 1-2.084.504 1.072 1.072 0 0 1 2.084-.504ZM146.044 3.407a1.072 1.072 0 1 1-2.084.504 1.072 1.072 0 0 1 2.084-.504ZM150.212 2.397a1.072 1.072 0 1 1-2.084.505 1.072 1.072 0 0 1 2.084-.505ZM154.38 1.388a1.072 1.072 0 1 1-2.084.504 1.072 1.072 0 0 1 2.084-.504ZM158.548.378a1.072 1.072 0 1 1-2.084.504 1.072 1.072 0 0 1 2.084-.504ZM80.365 23.73a1.072 1.072 0 1 1-2.084.504 1.072 1.072 0 0 1 2.084-.505ZM84.533 22.72a1.072 1.072 0 1 1-2.084.504 1.072 1.072 0 0 1 2.084-.505ZM88.701 21.71a1.072 1.072 0 1 1-2.084.505 1.072 1.072 0 0 1 2.084-.505ZM92.87 20.7a1.072 1.072 0 1 1-2.085.505 1.072 1.072 0 0 1 2.084-.505ZM97.037 19.69a1.072 1.072 0 1 1-2.084.505 1.072 1.072 0 0 1 2.084-.504ZM101.205 18.681a1.072 1.072 0 1 1-2.083.506 1.072 1.072 0 0 1 2.083-.506ZM105.373 17.671a1.072 1.072 0 1 1-2.083.506 1.072 1.072 0 0 1 2.083-.506ZM109.541 16.662a1.072 1.072 0 1 1-2.083.505 1.072 1.072 0 0 1 2.083-.505ZM113.709 15.652a1.072 1.072 0 1 1-2.083.506 1.072 1.072 0 0 1 2.083-.506ZM117.877 14.642a1.072 1.072 0 1 1-2.083.506 1.072 1.072 0 0 1 2.083-.506ZM122.045 13.633a1.072 1.072 0 1 1-2.083.506 1.072 1.072 0 0 1 2.083-.506ZM126.213 12.623a1.072 1.072 0 1 1-2.083.506 1.072 1.072 0 0 1 2.083-.506ZM130.381 11.614a1.072 1.072 0 1 1-2.083.505 1.072 1.072 0 0 1 2.083-.505ZM134.549 10.604a1.072 1.072 0 1 1-2.083.506 1.072 1.072 0 0 1 2.083-.506ZM138.717 9.594a1.072 1.072 0 1 1-2.083.506 1.072 1.072 0 0 1 2.083-.506ZM142.885 8.585a1.072 1.072 0 1 1-2.083.505 1.072 1.072 0 0 1 2.083-.505ZM147.053 7.575a1.072 1.072 0 1 1-2.083.506 1.072 1.072 0 0 1 2.083-.506ZM151.221 6.565a1.072 1.072 0 1 1-2.083.506 1.072 1.072 0 0 1 2.083-.506ZM155.389 5.556a1.072 1.072 0 1 1-2.083.505 1.072 1.072 0 0 1 2.083-.505ZM159.557 4.546a1.072 1.072 0 1 1-2.083.506 1.072 1.072 0 0 1 2.083-.506ZM78.346 15.393a1.072 1.072 0 1 1-2.084.505 1.072 1.072 0 0 1 2.084-.505ZM82.514 14.383a1.072 1.072 0 1 1-2.084.505 1.072 1.072 0 0 1 2.084-.505ZM86.682 13.374a1.072 1.072 0 1 1-2.084.505 1.072 1.072 0 0 1 2.084-.505ZM90.85 12.364a1.072 1.072 0 1 1-2.084.505 1.072 1.072 0 0 1 2.084-.505ZM95.018 11.355a1.072 1.072 0 1 1-2.084.504 1.072 1.072 0 0 1 2.084-.504ZM99.186 10.345a1.072 1.072 0 1 1-2.084.505 1.072 1.072 0 0 1 2.084-.505ZM103.354 9.335a1.072 1.072 0 1 1-2.084.505 1.072 1.072 0 0 1 2.084-.505ZM107.522 8.326a1.072 1.072 0 1 1-2.084.504 1.072 1.072 0 0 1 2.084-.504ZM111.69 7.316a1.072 1.072 0 1 1-2.084.504 1.072 1.072 0 0 1 2.084-.504ZM115.858 6.306a1.072 1.072 0 1 1-2.084.505 1.072 1.072 0 0 1 2.084-.505ZM120.026 5.297a1.072 1.072 0 1 1-2.084.504 1.072 1.072 0 0 1 2.084-.504ZM124.194 4.287a1.072 1.072 0 1 1-2.084.505 1.072 1.072 0 0 1 2.084-.505ZM128.362 3.277a1.072 1.072 0 1 1-2.084.505 1.072 1.072 0 0 1 2.084-.505ZM132.53 2.268a1.072 1.072 0 1 1-2.084.504 1.072 1.072 0 0 1 2.084-.504ZM136.698 1.258a1.072 1.072 0 1 1-2.084.505 1.072 1.072 0 0 1 2.084-.505ZM140.866.249a1.072 1.072 0 1 1-2.084.504 1.072 1.072 0 0 1 2.084-.504ZM145.034-.761a1.072 1.072 0 1 1-2.084.504 1.072 1.072 0 0 1 2.084-.504ZM149.202-1.77a1.072 1.072 0 1 1-2.084.504 1.072 1.072 0 0 1 2.084-.505ZM153.37-2.78a1.072 1.072 0 1 1-2.084.504 1.072 1.072 0 0 1 2.084-.504ZM157.538-3.79a1.072 1.072 0 1 1-2.084.504 1.072 1.072 0 0 1 2.084-.504ZM77.336 11.225a1.072 1.072 0 1 1-2.084.505 1.072 1.072 0 0 1 2.084-.505ZM81.504 10.216a1.072 1.072 0 1 1-2.084.504 1.072 1.072 0 0 1 2.084-.505ZM85.672 9.206a1.072 1.072 0 1 1-2.084.505 1.072 1.072 0 0 1 2.084-.505ZM89.84 8.196a1.072 1.072 0 1 1-2.084.505 1.072 1.072 0 0 1 2.084-.505ZM94.008 7.187a1.072 1.072 0 1 1-2.084.504 1.072 1.072 0 0 1 2.084-.504ZM98.176 6.177a1.072 1.072 0 1 1-2.084.505 1.072 1.072 0 0 1 2.084-.505ZM102.344 5.167a1.072 1.072 0 1 1-2.083.506 1.072 1.072 0 0 1 2.083-.506ZM106.512 4.158a1.072 1.072 0 1 1-2.083.505 1.072 1.072 0 0 1 2.083-.505ZM110.68 3.148a1.072 1.072 0 1 1-2.083.506 1.072 1.072 0 0 1 2.083-.506ZM114.848 2.138a1.072 1.072 0 1 1-2.083.506 1.072 1.072 0 0 1 2.083-.506ZM119.016 1.129a1.072 1.072 0 1 1-2.083.506 1.072 1.072 0 0 1 2.083-.506ZM123.184.12a1.072 1.072 0 1 1-2.083.505 1.072 1.072 0 0 1 2.083-.506ZM127.352-.89a1.072 1.072 0 1 1-2.083.505 1.072 1.072 0 0 1 2.083-.506ZM131.52-1.9a1.072 1.072 0 1 1-2.083.506 1.072 1.072 0 0 1 2.083-.506ZM135.688-2.91a1.072 1.072 0 1 1-2.083.506 1.072 1.072 0 0 1 2.083-.506ZM139.856-3.92a1.072 1.072 0 1 1-2.083.506 1.072 1.072 0 0 1 2.083-.505ZM144.024-4.93a1.072 1.072 0 1 1-2.083.507 1.072 1.072 0 0 1 2.083-.506ZM148.192-5.939a1.072 1.072 0 1 1-2.083.506 1.072 1.072 0 0 1 2.083-.506ZM152.36-6.948a1.072 1.072 0 1 1-2.083.505 1.072 1.072 0 0 1 2.083-.505ZM156.528-7.958a1.072 1.072 0 1 1-2.083.506 1.072 1.072 0 0 1 2.083-.506ZM83.394 36.233a1.072 1.072 0 1 1-2.084.505 1.072 1.072 0 0 1 2.084-.505ZM87.562 35.224a1.072 1.072 0 1 1-2.084.504 1.072 1.072 0 0 1 2.084-.505ZM91.73 34.214a1.072 1.072 0 1 1-2.084.505 1.072 1.072 0 0 1 2.084-.505ZM95.898 33.204a1.072 1.072 0 1 1-2.084.505 1.072 1.072 0 0 1 2.084-.505ZM100.066 32.195a1.072 1.072 0 1 1-2.082.505 1.072 1.072 0 0 1 2.082-.505ZM104.234 31.185a1.072 1.072 0 1 1-2.083.506 1.072 1.072 0 0 1 2.083-.506ZM108.402 30.175a1.072 1.072 0 1 1-2.083.506 1.072 1.072 0 0 1 2.083-.506ZM112.57 29.166a1.072 1.072 0 1 1-2.083.505 1.072 1.072 0 0 1 2.083-.505ZM116.738 28.156a1.072 1.072 0 1 1-2.083.506 1.072 1.072 0 0 1 2.083-.506ZM120.906 27.146a1.072 1.072 0 1 1-2.083.506 1.072 1.072 0 0 1 2.083-.506ZM125.074 26.137a1.072 1.072 0 1 1-2.083.505 1.072 1.072 0 0 1 2.083-.505ZM129.242 25.127a1.072 1.072 0 1 1-2.083.506 1.072 1.072 0 0 1 2.083-.506ZM133.41 24.117a1.072 1.072 0 1 1-2.083.506 1.072 1.072 0 0 1 2.083-.506ZM137.578 23.108a1.072 1.072 0 1 1-2.083.506 1.072 1.072 0 0 1 2.083-.506ZM141.746 22.098a1.072 1.072 0 1 1-2.083.506 1.072 1.072 0 0 1 2.083-.506ZM145.914 21.088a1.072 1.072 0 1 1-2.083.506 1.072 1.072 0 0 1 2.083-.506ZM150.082 20.079a1.072 1.072 0 1 1-2.083.506 1.072 1.072 0 0 1 2.083-.506ZM154.25 19.07a1.072 1.072 0 1 1-2.083.505 1.072 1.072 0 0 1 2.083-.506ZM158.418 18.06a1.072 1.072 0 1 1-2.083.505 1.072 1.072 0 0 1 2.083-.505ZM162.586 17.05a1.072 1.072 0 1 1-2.083.506 1.072 1.072 0 0 1 2.083-.506ZM84.404 40.401a1.072 1.072 0 1 1-2.084.505 1.072 1.072 0 0 1 2.084-.505ZM88.572 39.392a1.072 1.072 0 1 1-2.084.504 1.072 1.072 0 0 1 2.084-.505ZM92.74 38.382a1.072 1.072 0 1 1-2.084.505 1.072 1.072 0 0 1 2.084-.505ZM96.908 37.372a1.072 1.072 0 1 1-2.084.505 1.072 1.072 0 0 1 2.084-.505ZM101.076 36.363a1.072 1.072 0 1 1-2.084.504 1.072 1.072 0 0 1 2.084-.504ZM105.244 35.353a1.072 1.072 0 1 1-2.084.504 1.072 1.072 0 0 1 2.084-.504ZM109.412 34.343a1.072 1.072 0 1 1-2.084.505 1.072 1.072 0 0 1 2.084-.505ZM113.58 33.334a1.072 1.072 0 1 1-2.085.504 1.072 1.072 0 0 1 2.085-.504ZM117.748 32.324a1.072 1.072 0 1 1-2.084.504 1.072 1.072 0 0 1 2.084-.504ZM121.916 31.314a1.072 1.072 0 1 1-2.084.505 1.072 1.072 0 0 1 2.084-.505ZM126.084 30.305a1.072 1.072 0 1 1-2.084.504 1.072 1.072 0 0 1 2.084-.504ZM130.252 29.295a1.072 1.072 0 1 1-2.084.504 1.072 1.072 0 0 1 2.084-.504ZM134.42 28.285a1.072 1.072 0 1 1-2.085.505 1.072 1.072 0 0 1 2.085-.505ZM138.588 27.276a1.072 1.072 0 1 1-2.084.504 1.072 1.072 0 0 1 2.084-.504ZM142.756 26.266a1.072 1.072 0 1 1-2.085.505 1.072 1.072 0 0 1 2.085-.505ZM146.924 25.256a1.072 1.072 0 1 1-2.084.505 1.072 1.072 0 0 1 2.084-.505ZM151.092 24.247a1.072 1.072 0 1 1-2.084.504 1.072 1.072 0 0 1 2.084-.504ZM155.26 23.237a1.072 1.072 0 1 1-2.085.505 1.072 1.072 0 0 1 2.085-.505ZM159.428 22.228a1.072 1.072 0 1 1-2.084.504 1.072 1.072 0 0 1 2.084-.504ZM163.596 21.218a1.072 1.072 0 1 1-2.085.504 1.072 1.072 0 0 1 2.085-.504ZM82.385 32.065a1.072 1.072 0 1 1-2.085.505 1.072 1.072 0 0 1 2.085-.505ZM86.553 31.055a1.072 1.072 0 1 1-2.084.505 1.072 1.072 0 0 1 2.084-.505ZM90.72 30.046a1.072 1.072 0 1 1-2.083.505 1.072 1.072 0 0 1 2.084-.505ZM94.889 29.036a1.072 1.072 0 1 1-2.084.505 1.072 1.072 0 0 1 2.084-.505ZM99.057 28.027a1.072 1.072 0 1 1-2.084.504 1.072 1.072 0 0 1 2.084-.504ZM103.225 27.017a1.073 1.073 0 1 1-2.087.503 1.073 1.073 0 0 1 2.087-.503ZM107.393 26.007a1.073 1.073 0 1 1-2.086.504 1.073 1.073 0 0 1 2.086-.504ZM111.561 24.998a1.073 1.073 0 1 1-2.086.503 1.073 1.073 0 0 1 2.086-.503ZM115.729 23.988a1.073 1.073 0 1 1-2.086.503 1.073 1.073 0 0 1 2.086-.503ZM119.897 22.978a1.073 1.073 0 1 1-2.086.504 1.073 1.073 0 0 1 2.086-.504ZM124.065 21.969a1.073 1.073 0 1 1-2.086.503 1.073 1.073 0 0 1 2.086-.503ZM128.233 20.96a1.073 1.073 0 1 1-2.086.502 1.073 1.073 0 0 1 2.086-.503ZM132.401 19.95a1.073 1.073 0 1 1-2.086.503 1.073 1.073 0 0 1 2.086-.503ZM136.569 18.94a1.073 1.073 0 1 1-2.086.503 1.073 1.073 0 0 1 2.086-.503ZM140.737 17.93a1.073 1.073 0 1 1-2.086.503 1.073 1.073 0 0 1 2.086-.503ZM144.905 16.92a1.073 1.073 0 1 1-2.086.504 1.073 1.073 0 0 1 2.086-.503ZM149.073 15.91a1.073 1.073 0 1 1-2.086.504 1.073 1.073 0 0 1 2.086-.503ZM153.241 14.901a1.073 1.073 0 1 1-2.086.503 1.073 1.073 0 0 1 2.086-.503ZM157.409 13.892a1.073 1.073 0 1 1-2.086.503 1.073 1.073 0 0 1 2.086-.503ZM161.577 12.882a1.073 1.073 0 1 1-2.086.503 1.073 1.073 0 0 1 2.086-.503ZM81.375 27.897a1.072 1.072 0 1 1-2.084.505 1.072 1.072 0 0 1 2.084-.505ZM85.543 26.887a1.072 1.072 0 1 1-2.084.505 1.072 1.072 0 0 1 2.084-.505ZM89.711 25.878a1.072 1.072 0 1 1-2.084.505 1.072 1.072 0 0 1 2.084-.505ZM93.879 24.868a1.072 1.072 0 1 1-2.084.505 1.072 1.072 0 0 1 2.084-.505ZM98.047 23.859a1.072 1.072 0 1 1-2.084.504 1.072 1.072 0 0 1 2.084-.504ZM102.215 22.849a1.072 1.072 0 1 1-2.085.504 1.072 1.072 0 0 1 2.085-.504ZM106.383 21.84a1.072 1.072 0 1 1-2.084.504 1.072 1.072 0 0 1 2.084-.505ZM110.551 20.83a1.072 1.072 0 1 1-2.085.504 1.072 1.072 0 0 1 2.085-.504ZM114.719 19.82a1.072 1.072 0 1 1-2.084.504 1.072 1.072 0 0 1 2.084-.504ZM118.887 18.81a1.072 1.072 0 1 1-2.084.505 1.072 1.072 0 0 1 2.084-.505ZM123.055 17.8a1.072 1.072 0 1 1-2.085.505 1.072 1.072 0 0 1 2.085-.504ZM127.223 16.791a1.072 1.072 0 1 1-2.084.504 1.072 1.072 0 0 1 2.084-.504ZM131.391 15.781a1.072 1.072 0 1 1-2.085.505 1.072 1.072 0 0 1 2.085-.505ZM135.559 14.772a1.072 1.072 0 1 1-2.084.504 1.072 1.072 0 0 1 2.084-.504ZM139.727 13.762a1.072 1.072 0 1 1-2.084.505 1.072 1.072 0 0 1 2.084-.505ZM143.895 12.752a1.072 1.072 0 1 1-2.084.505 1.072 1.072 0 0 1 2.084-.505ZM148.063 11.743a1.072 1.072 0 1 1-2.084.504 1.072 1.072 0 0 1 2.084-.504ZM152.231 10.733a1.072 1.072 0 1 1-2.085.505 1.072 1.072 0 0 1 2.085-.505ZM156.399 9.724a1.072 1.072 0 1 1-2.084.504 1.072 1.072 0 0 1 2.084-.504ZM160.567 8.714a1.072 1.072 0 1 1-2.084.504 1.072 1.072 0 0 1 2.084-.504ZM87.433 52.905a1.072 1.072 0 1 1-2.084.505 1.072 1.072 0 0 1 2.084-.505ZM91.6 51.895a1.072 1.072 0 1 1-2.083.505 1.072 1.072 0 0 1 2.084-.505ZM95.769 50.886a1.072 1.072 0 1 1-2.084.505 1.072 1.072 0 0 1 2.084-.505ZM99.937 49.876a1.072 1.072 0 1 1-2.085.505 1.072 1.072 0 0 1 2.085-.505ZM104.105 48.867a1.072 1.072 0 1 1-2.085.504 1.072 1.072 0 0 1 2.085-.504ZM108.273 47.857a1.072 1.072 0 1 1-2.084.504 1.072 1.072 0 0 1 2.084-.504ZM112.441 46.847a1.072 1.072 0 1 1-2.084.505 1.072 1.072 0 0 1 2.084-.505ZM116.609 45.838a1.072 1.072 0 1 1-2.084.504 1.072 1.072 0 0 1 2.084-.504ZM120.777 44.828a1.072 1.072 0 1 1-2.084.504 1.072 1.072 0 0 1 2.084-.504ZM124.945 43.818a1.072 1.072 0 1 1-2.085.505 1.072 1.072 0 0 1 2.085-.505ZM129.113 42.809a1.072 1.072 0 1 1-2.084.504 1.072 1.072 0 0 1 2.084-.504ZM133.281 41.8a1.072 1.072 0 1 1-2.084.503 1.072 1.072 0 0 1 2.084-.504ZM137.449 40.79a1.072 1.072 0 1 1-2.084.504 1.072 1.072 0 0 1 2.084-.505ZM141.617 39.78a1.072 1.072 0 1 1-2.084.504 1.072 1.072 0 0 1 2.084-.504ZM145.785 38.77a1.072 1.072 0 1 1-2.085.505 1.072 1.072 0 0 1 2.085-.505ZM149.953 37.76a1.072 1.072 0 1 1-2.084.505 1.072 1.072 0 0 1 2.084-.505ZM154.121 36.75a1.072 1.072 0 1 1-2.084.505 1.072 1.072 0 0 1 2.084-.504ZM158.289 35.741a1.072 1.072 0 1 1-2.084.505 1.072 1.072 0 0 1 2.084-.505ZM162.457 34.732a1.072 1.072 0 1 1-2.084.504 1.072 1.072 0 0 1 2.084-.504ZM166.625 33.722a1.072 1.072 0 1 1-2.085.504 1.072 1.072 0 0 1 2.085-.504ZM88.442 57.073a1.072 1.072 0 1 1-2.084.505 1.072 1.072 0 0 1 2.084-.505ZM92.61 56.063a1.072 1.072 0 1 1-2.084.505 1.072 1.072 0 0 1 2.085-.505ZM96.778 55.054a1.072 1.072 0 1 1-2.084.505 1.072 1.072 0 0 1 2.084-.505ZM100.946 54.044a1.072 1.072 0 1 1-2.083.506 1.072 1.072 0 0 1 2.083-.506ZM105.114 53.035a1.072 1.072 0 1 1-2.083.505 1.072 1.072 0 0 1 2.083-.505ZM109.282 52.025a1.072 1.072 0 1 1-2.083.506 1.072 1.072 0 0 1 2.083-.506ZM113.45 51.015a1.072 1.072 0 1 1-2.083.506 1.072 1.072 0 0 1 2.083-.506ZM117.618 50.006a1.072 1.072 0 1 1-2.083.505 1.072 1.072 0 0 1 2.083-.505ZM121.786 48.996a1.072 1.072 0 1 1-2.083.506 1.072 1.072 0 0 1 2.083-.506ZM125.954 47.986a1.072 1.072 0 1 1-2.083.506 1.072 1.072 0 0 1 2.083-.506ZM130.122 46.977a1.072 1.072 0 1 1-2.083.505 1.072 1.072 0 0 1 2.083-.505ZM134.29 45.967a1.072 1.072 0 1 1-2.083.506 1.072 1.072 0 0 1 2.083-.506ZM138.458 44.957a1.072 1.072 0 1 1-2.083.506 1.072 1.072 0 0 1 2.083-.506ZM142.626 43.948a1.072 1.072 0 1 1-2.083.506 1.072 1.072 0 0 1 2.083-.506ZM146.794 42.938a1.072 1.072 0 1 1-2.083.506 1.072 1.072 0 0 1 2.083-.506ZM150.962 41.928a1.072 1.072 0 1 1-2.083.506 1.072 1.072 0 0 1 2.083-.505ZM155.13 40.919a1.072 1.072 0 1 1-2.083.506 1.072 1.072 0 0 1 2.083-.506ZM159.298 39.91a1.072 1.072 0 1 1-2.083.505 1.072 1.072 0 0 1 2.083-.506ZM163.466 38.9a1.072 1.072 0 1 1-2.083.505 1.072 1.072 0 0 1 2.083-.505ZM167.634 37.89a1.072 1.072 0 1 1-2.083.506 1.072 1.072 0 0 1 2.083-.506ZM86.423 48.737a1.072 1.072 0 1 1-2.084.505 1.072 1.072 0 0 1 2.084-.505ZM90.591 47.727a1.072 1.072 0 1 1-2.084.505 1.072 1.072 0 0 1 2.084-.505ZM94.76 46.718a1.072 1.072 0 1 1-2.085.505 1.072 1.072 0 0 1 2.084-.505ZM98.927 45.708a1.072 1.072 0 1 1-2.084.505 1.072 1.072 0 0 1 2.084-.505ZM103.095 44.699a1.072 1.072 0 1 1-2.083.505 1.072 1.072 0 0 1 2.083-.505ZM107.263 43.689a1.072 1.072 0 1 1-2.083.506 1.072 1.072 0 0 1 2.083-.506ZM111.431 42.68a1.072 1.072 0 1 1-2.083.505 1.072 1.072 0 0 1 2.083-.506ZM115.599 41.67a1.072 1.072 0 1 1-2.083.505 1.072 1.072 0 0 1 2.083-.505ZM119.767 40.66a1.072 1.072 0 1 1-2.083.506 1.072 1.072 0 0 1 2.083-.506ZM123.935 39.65a1.072 1.072 0 1 1-2.083.506 1.072 1.072 0 0 1 2.083-.506ZM128.103 38.64a1.072 1.072 0 1 1-2.083.506 1.072 1.072 0 0 1 2.083-.505ZM132.271 37.631a1.072 1.072 0 1 1-2.083.506 1.072 1.072 0 0 1 2.083-.506ZM136.439 36.621a1.072 1.072 0 1 1-2.083.506 1.072 1.072 0 0 1 2.083-.506ZM140.607 35.612a1.072 1.072 0 1 1-2.083.506 1.072 1.072 0 0 1 2.083-.506ZM144.775 34.602a1.072 1.072 0 1 1-2.083.506 1.072 1.072 0 0 1 2.083-.506ZM148.943 33.593a1.072 1.072 0 1 1-2.083.505 1.072 1.072 0 0 1 2.083-.505ZM153.111 32.583a1.072 1.072 0 1 1-2.083.506 1.072 1.072 0 0 1 2.083-.506ZM157.279 31.573a1.072 1.072 0 1 1-2.083.506 1.072 1.072 0 0 1 2.083-.506ZM161.447 30.564a1.072 1.072 0 1 1-2.083.505 1.072 1.072 0 0 1 2.083-.505ZM165.615 29.554a1.072 1.072 0 1 1-2.085.505 1.072 1.072 0 0 1 2.085-.505ZM85.413 44.57a1.072 1.072 0 1 1-2.083.504 1.072 1.072 0 0 1 2.084-.505ZM89.582 43.56a1.072 1.072 0 1 1-2.084.504 1.072 1.072 0 0 1 2.084-.505ZM93.75 42.55a1.072 1.072 0 1 1-2.085.505 1.072 1.072 0 0 1 2.084-.505ZM97.918 41.54a1.072 1.072 0 1 1-2.084.505 1.072 1.072 0 0 1 2.084-.505ZM102.086 40.53a1.073 1.073 0 1 1-2.086.504 1.073 1.073 0 0 1 2.086-.503ZM106.254 39.52a1.073 1.073 0 1 1-2.086.504 1.073 1.073 0 0 1 2.086-.503ZM110.422 38.511a1.073 1.073 0 1 1-2.086.504 1.073 1.073 0 0 1 2.086-.504ZM114.59 37.502a1.073 1.073 0 1 1-2.086.503 1.073 1.073 0 0 1 2.086-.503ZM118.758 36.492a1.073 1.073 0 1 1-2.086.503 1.073 1.073 0 0 1 2.086-.503ZM122.925 35.482a1.072 1.072 0 1 1-2.083.506 1.072 1.072 0 0 1 2.083-.506ZM127.093 34.473a1.072 1.072 0 1 1-2.083.505 1.072 1.072 0 0 1 2.083-.505ZM131.261 33.463a1.072 1.072 0 1 1-2.083.506 1.072 1.072 0 0 1 2.083-.506ZM135.429 32.453a1.072 1.072 0 1 1-2.083.506 1.072 1.072 0 0 1 2.083-.506ZM139.597 31.444a1.072 1.072 0 1 1-2.083.506 1.072 1.072 0 0 1 2.083-.506ZM143.765 30.434a1.072 1.072 0 1 1-2.083.506 1.072 1.072 0 0 1 2.083-.506ZM147.933 29.424a1.072 1.072 0 1 1-2.083.506 1.072 1.072 0 0 1 2.083-.506ZM152.101 28.415a1.072 1.072 0 1 1-2.083.506 1.072 1.072 0 0 1 2.083-.506ZM156.269 27.405a1.072 1.072 0 1 1-2.083.506 1.072 1.072 0 0 1 2.083-.506ZM160.437 26.396a1.072 1.072 0 1 1-2.083.505 1.072 1.072 0 0 1 2.083-.505ZM164.605 25.386a1.072 1.072 0 1 1-2.083.506 1.072 1.072 0 0 1 2.083-.506ZM91.471 69.577a1.072 1.072 0 1 1-2.084.505 1.072 1.072 0 0 1 2.084-.505ZM95.64 68.567a1.072 1.072 0 1 1-2.085.505 1.072 1.072 0 0 1 2.084-.505ZM99.807 67.558a1.072 1.072 0 1 1-2.084.505 1.072 1.072 0 0 1 2.084-.505ZM103.975 66.548a1.072 1.072 0 1 1-2.083.506 1.072 1.072 0 0 1 2.083-.506ZM108.143 65.538a1.072 1.072 0 1 1-2.083.506 1.072 1.072 0 0 1 2.083-.505ZM112.311 64.529a1.072 1.072 0 1 1-2.083.506 1.072 1.072 0 0 1 2.083-.506ZM116.479 63.52a1.072 1.072 0 1 1-2.083.505 1.072 1.072 0 0 1 2.083-.506ZM120.647 62.51a1.072 1.072 0 1 1-2.083.505 1.072 1.072 0 0 1 2.083-.505ZM124.815 61.5a1.072 1.072 0 1 1-2.083.506 1.072 1.072 0 0 1 2.083-.506ZM128.983 60.49a1.072 1.072 0 1 1-2.083.506 1.072 1.072 0 0 1 2.083-.506ZM133.151 59.48a1.072 1.072 0 1 1-2.083.506 1.072 1.072 0 0 1 2.083-.505ZM137.319 58.471a1.072 1.072 0 1 1-2.083.506 1.072 1.072 0 0 1 2.083-.506ZM141.487 57.461a1.072 1.072 0 1 1-2.083.506 1.072 1.072 0 0 1 2.083-.506ZM145.655 56.452a1.072 1.072 0 1 1-2.083.506 1.072 1.072 0 0 1 2.083-.506ZM149.823 55.442a1.072 1.072 0 1 1-2.083.506 1.072 1.072 0 0 1 2.083-.506ZM153.991 54.432a1.072 1.072 0 1 1-2.083.506 1.072 1.072 0 0 1 2.083-.506ZM158.159 53.423a1.072 1.072 0 1 1-2.083.506 1.072 1.072 0 0 1 2.083-.506ZM162.327 52.413a1.072 1.072 0 1 1-2.083.506 1.072 1.072 0 0 1 2.083-.506ZM166.495 51.404a1.072 1.072 0 1 1-2.083.505 1.072 1.072 0 0 1 2.083-.505ZM170.663 50.394a1.072 1.072 0 1 1-2.083.506 1.072 1.072 0 0 1 2.083-.506ZM92.481 73.745a1.072 1.072 0 1 1-2.084.505 1.072 1.072 0 0 1 2.084-.505ZM96.649 72.736a1.072 1.072 0 1 1-2.084.504 1.072 1.072 0 0 1 2.084-.504ZM100.817 71.726a1.072 1.072 0 1 1-2.084.504 1.072 1.072 0 0 1 2.084-.504ZM104.985 70.716a1.072 1.072 0 1 1-2.084.505 1.072 1.072 0 0 1 2.084-.505ZM109.153 69.707a1.072 1.072 0 1 1-2.085.504 1.072 1.072 0 0 1 2.085-.504ZM113.321 68.697a1.072 1.072 0 1 1-2.084.504 1.072 1.072 0 0 1 2.084-.504ZM117.489 67.687a1.072 1.072 0 1 1-2.085.505 1.072 1.072 0 0 1 2.085-.505ZM121.657 66.678a1.072 1.072 0 1 1-2.084.504 1.072 1.072 0 0 1 2.084-.504ZM125.825 65.668a1.072 1.072 0 1 1-2.084.504 1.072 1.072 0 0 1 2.084-.504ZM129.993 64.658a1.072 1.072 0 1 1-2.084.505 1.072 1.072 0 0 1 2.084-.505ZM134.161 63.649a1.072 1.072 0 1 1-2.084.504 1.072 1.072 0 0 1 2.084-.504ZM138.329 62.64a1.072 1.072 0 1 1-2.085.503 1.072 1.072 0 0 1 2.085-.504ZM142.497 61.63a1.072 1.072 0 1 1-2.084.504 1.072 1.072 0 0 1 2.084-.505ZM146.665 60.62a1.072 1.072 0 1 1-2.084.504 1.072 1.072 0 0 1 2.084-.504ZM150.833 59.61a1.072 1.072 0 1 1-2.084.504 1.072 1.072 0 0 1 2.084-.504ZM155.001 58.6a1.072 1.072 0 1 1-2.084.505A1.072 1.072 0 0 1 155 58.6ZM159.169 57.59a1.072 1.072 0 1 1-2.085.505 1.072 1.072 0 0 1 2.085-.504ZM163.337 56.581a1.072 1.072 0 1 1-2.084.505 1.072 1.072 0 0 1 2.084-.505ZM167.505 55.572a1.072 1.072 0 1 1-2.084.504 1.072 1.072 0 0 1 2.084-.504ZM171.673 54.562a1.072 1.072 0 1 1-2.084.504 1.072 1.072 0 0 1 2.084-.504ZM93.49 77.913a1.072 1.072 0 1 1-2.083.505 1.072 1.072 0 0 1 2.084-.505ZM97.659 76.903a1.072 1.072 0 1 1-2.085.505 1.072 1.072 0 0 1 2.085-.505ZM101.827 75.894a1.072 1.072 0 1 1-2.084.504 1.072 1.072 0 0 1 2.084-.504ZM105.995 74.884a1.072 1.072 0 1 1-2.084.505 1.072 1.072 0 0 1 2.084-.505ZM110.163 73.874a1.072 1.072 0 1 1-2.084.505 1.072 1.072 0 0 1 2.084-.505ZM114.331 72.865a1.072 1.072 0 1 1-2.084.504 1.072 1.072 0 0 1 2.084-.504ZM118.499 71.855a1.072 1.072 0 1 1-2.085.505 1.072 1.072 0 0 1 2.085-.505ZM122.667 70.846a1.072 1.072 0 1 1-2.084.504 1.072 1.072 0 0 1 2.084-.504ZM126.835 69.836a1.072 1.072 0 1 1-2.084.504 1.072 1.072 0 0 1 2.084-.504ZM131.003 68.826a1.072 1.072 0 1 1-2.084.505 1.072 1.072 0 0 1 2.084-.505ZM135.171 67.817a1.072 1.072 0 1 1-2.084.504 1.072 1.072 0 0 1 2.084-.504ZM139.339 66.807a1.072 1.072 0 1 1-2.085.504 1.072 1.072 0 0 1 2.085-.504ZM143.507 65.797a1.073 1.073 0 1 1-2.086.504 1.073 1.073 0 0 1 2.086-.504ZM147.675 64.788a1.073 1.073 0 1 1-2.086.503 1.073 1.073 0 0 1 2.086-.503ZM151.843 63.778a1.073 1.073 0 1 1-2.086.503 1.073 1.073 0 0 1 2.086-.503ZM156.011 62.769a1.073 1.073 0 1 1-2.086.503 1.073 1.073 0 0 1 2.086-.503ZM160.179 61.759a1.073 1.073 0 1 1-2.086.503 1.073 1.073 0 0 1 2.086-.503ZM164.347 60.75a1.073 1.073 0 1 1-2.086.502 1.073 1.073 0 0 1 2.086-.503ZM168.515 59.74a1.073 1.073 0 1 1-2.086.503 1.073 1.073 0 0 1 2.086-.503ZM172.683 58.73a1.073 1.073 0 1 1-2.086.503 1.073 1.073 0 0 1 2.086-.503ZM94.5 82.081a1.072 1.072 0 1 1-2.084.505 1.072 1.072 0 0 1 2.084-.505ZM98.668 81.072a1.072 1.072 0 1 1-2.084.504 1.072 1.072 0 0 1 2.084-.504ZM102.836 80.062a1.072 1.072 0 1 1-2.083.506 1.072 1.072 0 0 1 2.083-.506ZM107.004 79.052a1.072 1.072 0 1 1-2.083.506 1.072 1.072 0 0 1 2.083-.506ZM111.172 78.043a1.072 1.072 0 1 1-2.083.505 1.072 1.072 0 0 1 2.083-.505ZM115.34 77.033a1.072 1.072 0 1 1-2.083.506 1.072 1.072 0 0 1 2.083-.506ZM119.508 76.023a1.072 1.072 0 1 1-2.083.506 1.072 1.072 0 0 1 2.083-.506ZM123.676 75.014a1.072 1.072 0 1 1-2.083.505 1.072 1.072 0 0 1 2.083-.505ZM127.844 74.004a1.072 1.072 0 1 1-2.083.506 1.072 1.072 0 0 1 2.083-.506ZM132.012 72.994a1.072 1.072 0 1 1-2.083.506 1.072 1.072 0 0 1 2.083-.506ZM136.18 71.985a1.072 1.072 0 1 1-2.083.505 1.072 1.072 0 0 1 2.083-.505ZM140.348 70.975a1.072 1.072 0 1 1-2.083.506 1.072 1.072 0 0 1 2.083-.506ZM144.516 69.965a1.072 1.072 0 1 1-2.083.506 1.072 1.072 0 0 1 2.083-.506ZM148.684 68.956a1.072 1.072 0 1 1-2.083.506 1.072 1.072 0 0 1 2.083-.506ZM152.852 67.946a1.072 1.072 0 1 1-2.083.506 1.072 1.072 0 0 1 2.083-.506ZM157.02 66.936a1.072 1.072 0 1 1-2.083.506 1.072 1.072 0 0 1 2.083-.505ZM161.188 65.927a1.072 1.072 0 1 1-2.083.506 1.072 1.072 0 0 1 2.083-.506ZM165.356 64.917a1.072 1.072 0 1 1-2.083.506 1.072 1.072 0 0 1 2.083-.506ZM169.524 63.908a1.072 1.072 0 1 1-2.083.505 1.072 1.072 0 0 1 2.083-.505ZM173.692 62.898a1.072 1.072 0 1 1-2.083.506 1.072 1.072 0 0 1 2.083-.506ZM95.51 86.25a1.072 1.072 0 1 1-2.084.504 1.072 1.072 0 0 1 2.084-.505ZM99.678 85.24a1.072 1.072 0 1 1-2.084.504 1.072 1.072 0 0 1 2.084-.504ZM103.846 84.23a1.072 1.072 0 1 1-2.084.504 1.072 1.072 0 0 1 2.084-.504ZM108.014 83.22a1.072 1.072 0 1 1-2.084.505 1.072 1.072 0 0 1 2.084-.505ZM112.182 82.21a1.072 1.072 0 1 1-2.084.505 1.072 1.072 0 0 1 2.084-.505ZM116.35 81.2a1.072 1.072 0 1 1-2.084.505 1.072 1.072 0 0 1 2.084-.504ZM120.518 80.191a1.072 1.072 0 1 1-2.085.505 1.072 1.072 0 0 1 2.085-.505ZM124.686 79.182a1.072 1.072 0 1 1-2.084.504 1.072 1.072 0 0 1 2.084-.504ZM128.854 78.172a1.072 1.072 0 1 1-2.085.504 1.072 1.072 0 0 1 2.085-.504ZM133.022 77.162a1.072 1.072 0 1 1-2.084.505 1.072 1.072 0 0 1 2.084-.505ZM137.19 76.153a1.072 1.072 0 1 1-2.084.504 1.072 1.072 0 0 1 2.084-.504ZM141.358 75.143a1.072 1.072 0 1 1-2.085.504 1.072 1.072 0 0 1 2.085-.504ZM145.526 74.133a1.072 1.072 0 1 1-2.084.505 1.072 1.072 0 0 1 2.084-.505ZM149.694 73.124a1.072 1.072 0 1 1-2.085.504 1.072 1.072 0 0 1 2.085-.504ZM153.862 72.114a1.072 1.072 0 1 1-2.084.504 1.072 1.072 0 0 1 2.084-.504ZM158.03 71.105a1.072 1.072 0 1 1-2.084.504 1.072 1.072 0 0 1 2.084-.504ZM162.198 70.095a1.072 1.072 0 1 1-2.085.504 1.072 1.072 0 0 1 2.085-.504ZM166.366 69.085a1.072 1.072 0 1 1-2.084.505 1.072 1.072 0 0 1 2.084-.505ZM170.534 68.076a1.072 1.072 0 1 1-2.085.504 1.072 1.072 0 0 1 2.085-.504ZM174.702 67.066a1.072 1.072 0 1 1-2.084.504 1.072 1.072 0 0 1 2.084-.504ZM96.52 90.417a1.072 1.072 0 1 1-2.084.505 1.072 1.072 0 0 1 2.084-.505ZM100.688 89.407a1.073 1.073 0 1 1-2.086.504 1.073 1.073 0 0 1 2.086-.504ZM104.856 88.398a1.073 1.073 0 1 1-2.086.503 1.073 1.073 0 0 1 2.086-.503ZM109.024 87.388a1.073 1.073 0 1 1-2.086.503 1.073 1.073 0 0 1 2.086-.503ZM113.192 86.379a1.073 1.073 0 1 1-2.086.503 1.073 1.073 0 0 1 2.086-.504ZM117.36 85.369a1.073 1.073 0 1 1-2.086.503 1.073 1.073 0 0 1 2.086-.503ZM121.528 84.36a1.073 1.073 0 1 1-2.086.502 1.073 1.073 0 0 1 2.086-.503ZM125.696 83.35a1.073 1.073 0 1 1-2.086.503 1.073 1.073 0 0 1 2.086-.503ZM129.864 82.34a1.073 1.073 0 1 1-2.086.503 1.073 1.073 0 0 1 2.086-.503ZM134.032 81.33a1.073 1.073 0 1 1-2.086.504 1.073 1.073 0 0 1 2.086-.504ZM138.2 80.32a1.073 1.073 0 1 1-2.086.504 1.073 1.073 0 0 1 2.086-.503ZM142.368 79.311a1.073 1.073 0 1 1-2.086.503 1.073 1.073 0 0 1 2.086-.503ZM146.536 78.301a1.073 1.073 0 1 1-2.086.504 1.073 1.073 0 0 1 2.086-.504ZM150.704 77.292a1.073 1.073 0 1 1-2.086.503 1.073 1.073 0 0 1 2.086-.503ZM154.872 76.282a1.073 1.073 0 1 1-2.086.503 1.073 1.073 0 0 1 2.086-.503ZM159.04 75.272a1.073 1.073 0 1 1-2.086.504 1.073 1.073 0 0 1 2.086-.504ZM163.208 74.263a1.073 1.073 0 1 1-2.086.503 1.073 1.073 0 0 1 2.086-.503ZM167.376 73.253a1.073 1.073 0 1 1-2.086.503 1.073 1.073 0 0 1 2.086-.503ZM171.544 72.244a1.073 1.073 0 1 1-2.086.503 1.073 1.073 0 0 1 2.086-.503ZM175.712 71.234a1.073 1.073 0 1 1-2.086.503 1.073 1.073 0 0 1 2.086-.503ZM90.462 65.41a1.072 1.072 0 1 1-2.084.504 1.072 1.072 0 0 1 2.084-.505ZM94.63 64.4a1.072 1.072 0 1 1-2.084.504 1.072 1.072 0 0 1 2.084-.504ZM98.798 63.39a1.072 1.072 0 1 1-2.084.505 1.072 1.072 0 0 1 2.084-.505ZM102.966 62.38a1.072 1.072 0 1 1-2.084.505 1.072 1.072 0 0 1 2.084-.505ZM107.134 61.37a1.072 1.072 0 1 1-2.085.505 1.072 1.072 0 0 1 2.085-.505ZM111.302 60.36a1.072 1.072 0 1 1-2.084.505 1.072 1.072 0 0 1 2.084-.504ZM115.47 59.351a1.072 1.072 0 1 1-2.085.505 1.072 1.072 0 0 1 2.085-.505ZM119.638 58.342a1.072 1.072 0 1 1-2.084.504 1.072 1.072 0 0 1 2.084-.504ZM123.806 57.332a1.072 1.072 0 1 1-2.084.504 1.072 1.072 0 0 1 2.084-.504ZM127.974 56.322a1.072 1.072 0 1 1-2.085.505 1.072 1.072 0 0 1 2.085-.505ZM132.142 55.313a1.072 1.072 0 1 1-2.084.504 1.072 1.072 0 0 1 2.084-.504ZM136.31 54.303a1.072 1.072 0 1 1-2.085.504 1.072 1.072 0 0 1 2.085-.504ZM140.478 53.293a1.072 1.072 0 1 1-2.084.505 1.072 1.072 0 0 1 2.084-.505ZM144.646 52.284a1.072 1.072 0 1 1-2.084.504 1.072 1.072 0 0 1 2.084-.504ZM148.814 51.274a1.072 1.072 0 1 1-2.085.504 1.072 1.072 0 0 1 2.085-.504ZM152.982 50.264a1.072 1.072 0 1 1-2.084.505 1.072 1.072 0 0 1 2.084-.505ZM157.15 49.255a1.072 1.072 0 1 1-2.085.504 1.072 1.072 0 0 1 2.085-.504ZM161.318 48.245a1.072 1.072 0 1 1-2.084.505 1.072 1.072 0 0 1 2.084-.505ZM165.486 47.236a1.072 1.072 0 1 1-2.084.504 1.072 1.072 0 0 1 2.084-.504ZM169.654 46.226a1.072 1.072 0 1 1-2.084.504 1.072 1.072 0 0 1 2.084-.504ZM89.452 61.241a1.072 1.072 0 1 1-2.084.505 1.072 1.072 0 0 1 2.084-.505ZM93.62 60.231a1.072 1.072 0 1 1-2.084.505 1.072 1.072 0 0 1 2.084-.505ZM97.788 59.222a1.072 1.072 0 1 1-2.084.505 1.072 1.072 0 0 1 2.084-.505ZM101.956 58.212a1.072 1.072 0 1 1-2.084.505 1.072 1.072 0 0 1 2.084-.505ZM106.124 57.203a1.072 1.072 0 1 1-2.085.504 1.072 1.072 0 0 1 2.085-.504ZM110.292 56.193a1.072 1.072 0 1 1-2.084.504 1.072 1.072 0 0 1 2.084-.504ZM114.46 55.183a1.072 1.072 0 1 1-2.084.505 1.072 1.072 0 0 1 2.084-.505ZM118.628 54.174a1.072 1.072 0 1 1-2.084.504 1.072 1.072 0 0 1 2.084-.504ZM122.796 53.164a1.072 1.072 0 1 1-2.084.504 1.072 1.072 0 0 1 2.084-.504ZM126.964 52.154a1.072 1.072 0 1 1-2.085.505 1.072 1.072 0 0 1 2.085-.505ZM131.132 51.145a1.072 1.072 0 1 1-2.084.504 1.072 1.072 0 0 1 2.084-.504ZM135.3 50.135a1.072 1.072 0 1 1-2.085.504 1.072 1.072 0 0 1 2.085-.504ZM139.468 49.125a1.072 1.072 0 1 1-2.084.505 1.072 1.072 0 0 1 2.084-.505ZM143.636 48.116a1.072 1.072 0 1 1-2.084.504 1.072 1.072 0 0 1 2.084-.504ZM147.804 47.106a1.072 1.072 0 1 1-2.085.505 1.072 1.072 0 0 1 2.085-.505ZM151.972 46.096a1.072 1.072 0 1 1-2.084.505 1.072 1.072 0 0 1 2.084-.505ZM156.14 45.087a1.072 1.072 0 1 1-2.085.504 1.072 1.072 0 0 1 2.085-.504ZM160.308 44.077a1.072 1.072 0 1 1-2.084.505 1.072 1.072 0 0 1 2.084-.505ZM164.476 43.068a1.072 1.072 0 1 1-2.084.504 1.072 1.072 0 0 1 2.084-.504ZM168.644 42.058a1.072 1.072 0 1 1-2.085.504 1.072 1.072 0 0 1 2.085-.504Z"/></g></g><defs><linearGradient id="b" x1="68" y1="0" x2="68" y2="69" gradientUnits="userSpaceOnUse"><stop stop-color="#fff" stop-opacity="0"/><stop offset="1" stop-color="#fff"/></linearGradient><clipPath id="a"><path fill="#fff" d="M0 0h250v32H0z"/></clipPath></defs></svg>
