<svg width="256" height="256" fill="none" xmlns="http://www.w3.org/2000/svg"><g opacity=".6" fill="#fff"><path d="M129.226 90.322h-2.786V70.198h2.786v20.123ZM129.226 179.474h-2.786V159.35h2.786v20.124ZM205.609 126.116H50.059v-3.247h155.55v3.247ZM86.491 107.792a4.627 4.627 0 0 0-4.627-4.627h-14.97l-.681 1.543h.78l.345-.646h10.795a3.732 3.732 0 0 1 0 7.461h-11.25l-.478.613 10.493 8.433h7.96l-10.142-8.149h7.148a4.625 4.625 0 0 0 4.627-4.628ZM120.939 119.182c-3.065 0-5.93-3.79-5.93-7.314a7.21 7.21 0 0 1 .756-3.213c1.061-2.286 3.105-4.099 5.174-4.099 2.073 0 4.117 1.813 5.179 4.099.481.974.755 2.059.755 3.213 0 3.524-2.896 7.314-5.934 7.314Zm10.548-7.333c-.011-6.377-4.675-8.68-10.548-8.684-5.869.004-10.536 2.307-10.543 8.684 0 .007-.004.012-.004.019 0 6.391 4.671 8.701 10.547 8.701 5.88 0 10.548-2.31 10.548-8.701v-.019ZM116.045 128.474h-5.307l-2.987 17.4h14.335l.24-1.397h-9.028l2.747-16.003ZM123.01 144.477l-.241 1.398h1.11l.241-1.398h-1.11ZM79.296 128.474h-.717l-2.987 17.4H80.9l2.747-16.003h1.167l.24-1.397h-5.758ZM85.737 128.474l-.24 1.397h1.106l.24-1.397h-1.106ZM105.112 103.165l-1.406 8.202h-9.397l1.167-6.801h.81l.241-1.401H90.41l-2.985 17.404h5.305l1.363-7.949h9.399l-1.363 7.949h5.308l2.983-17.404h-5.307Z"/><path d="M98.32 103.165h-1.11l-.24 1.401h1.11l.24-1.401ZM137.771 128.474h-6.015l-7.056 17.4h5.735l5.079-12.542 5.213 12.542H145l-7.229-17.4Z"/><path d="m132.247 144.426-.568 1.398h7.435l-.578-1.398h-6.289ZM140.095 119.551h-2.92l2.565-14.952c.263-.026.54-.043.845-.043 2.073 0 4.117 1.813 5.178 4.099.482.974.755 2.059.755 3.213 0 3.526-3.386 7.683-6.423 7.683Zm11.037-7.702c-.01-6.377-4.796-8.68-10.668-8.684h-8.552l-.239 1.401h2.765l-2.743 16.003h10.267c5.216 0 9.17-2.807 9.17-8.701v-.019ZM171.259 144.856h-2.92l2.565-14.952c.263-.026.536-.043.845-.043 2.071 0 4.113 1.813 5.175 4.099.485.974.755 2.063.755 3.213 0 3.526-3.383 7.683-6.42 7.683Zm11.037-7.702c-.011-6.373-4.799-8.68-10.669-8.68h-8.205l-.241 1.397h2.421l-1.886 10.989-8.722-12.386h-7.008l-2.986 17.4h5.306l.011-.05h2.019l.241-1.398h-2.02l2.12-12.371 9.73 13.819h10.715c5.22 0 9.174-2.807 9.174-8.701v-.019Z"/><path d="M162.816 128.474h-.987l-.241 1.397h.987l.241-1.397ZM184.83 111.321H177.608a3.53 3.53 0 1 1 0-7.06h10.739l.187-1.096h-14.809a4.626 4.626 0 0 0-4.628 4.624 4.626 4.626 0 0 0 4.628 4.624H180.947a3.531 3.531 0 0 1 3.528 3.532 3.529 3.529 0 0 1-3.528 3.528H169.69l-.191 1.096h15.331a4.624 4.624 0 1 0 0-9.248ZM101.926 136.626H94.7a3.53 3.53 0 0 1 0-7.059h10.743l.187-1.093H90.817a4.62 4.62 0 0 0-4.624 4.62 4.626 4.626 0 0 0 4.624 4.628h7.226a3.528 3.528 0 0 1 0 7.059H86.786l-.19 1.093h15.33a4.623 4.623 0 0 0 4.624-4.624 4.623 4.623 0 0 0-4.624-4.624Z"/><path d="M167.457 118.952h-10.74l1.086-6.332h8.348l.213-1.252h-8.344l1.047-6.112h9.543a7.027 7.027 0 0 1 1.438-2.091H154.119l-2.987 17.404h5.308l.011-.052h10.736l.27-1.565Z"/><path d="m29.102 124.834 98.731-98.732 98.735 98.732-98.735 98.735-98.731-98.735ZM127.833 6 9 124.834l118.833 118.839 118.833-118.839L127.833 6Z"/></g><path d="M79.766 75.187h-2.22l-.017-.043h-16.56V35.341h16.144c17.196 0 23.701 7.673 23.701 19.924 0 10.866-7.674 19.922-21.048 19.922ZM77.71 22.165H44.628v107.038h16.34V88.32h21.147c22.204 0 34.946-15.036 34.946-33.079 0-20.341-10.799-33.076-39.352-33.076ZM195.411 54.019c0 10.188-7.194 18.678-19.731 18.678h-20.786V35.342h18.297c16.122 0 22.22 7.19 22.22 18.677Zm1.692 75.185h17.799l-25.525-44.88c14.297-4.174 22.277-16.296 22.277-30.304 0-19.59-10.398-31.856-37.898-31.856h-35.199v107.04h16.337V85.875h17.566l24.643 43.329ZM101.639 172.36c0 10.188-7.194 18.678-19.732 18.678H61.121v-37.355H79.42c16.122 0 22.22 7.191 22.22 18.677Zm1.692 75.185h17.798l-25.524-44.881c14.297-4.174 22.277-16.295 22.277-30.303 0-19.591-10.398-31.856-37.899-31.856H44.784v107.04h16.337v-43.329h17.567l24.643 43.329ZM193.983 144.402v41.542h-36.016v-41.542h-20.96v106.511h20.96v-40.696h36.016v40.696h20.959V144.402h-20.959Z" fill="#fff"/></svg>
